<svg xmlns="http://www.w3.org/2000/svg" id="e" width="20" height="20" data-name="ICONS" viewBox="0 0 20 20"><path fill="var(--iconPrimary, #222)" d="M18.08719,10.875c-.48323,0-.875-.39176-.875-.875s.39177-.875.875-.875.875.39175.875.875-.39177.875-.875.875Z"/><path fill="var(--iconPrimary, #222)" d="M14.84475,10.875c-.48323,0-.875-.39176-.875-.875s.39177-.875.875-.875.875.39175.875.875-.39177.875-.875.875Z"/><path fill="var(--iconPrimary, #222)" d="M11.60231,10.875c-.48324,0-.875-.39176-.875-.875s.39176-.875.875-.875.875.39175.875.875-.39176.875-.875.875Z"/><path fill="var(--iconPrimary, #222)" d="M8.35987,10.875c-.48324,0-.875-.39176-.875-.875s.39176-.875.875-.875.875.39175.875.875-.39176.875-.875.875Z"/><path fill="var(--iconPrimary, #222)" d="M1.875,10.875c-.48324,0-.875-.39176-.875-.875s.39176-.875.875-.875.875.39175.875.875-.39176.875-.875.875Z"/><path fill="var(--iconPrimary, #222)" d="M5.11744,10.875c-.48324,0-.875-.39176-.875-.875s.39176-.875.875-.875.875.39175.875.875-.39176.875-.875.875Z"/></svg>