<svg xmlns="http://www.w3.org/2000/svg" width="20" height="20" viewBox="0 0 20 20"><path fill="var(--iconPrimary, #222)" d="m17.25,16.52148H7.25c-.41406,0-.75-.33594-.75-.75s.33594-.75.75-.75h10c.41406,0,.75.33594.75.75s-.33594.75-.75.75Z"/><path fill="var(--iconPrimary, #222)" d="m17.25,10.52148H7.25c-.41406,0-.75-.33594-.75-.75s.33594-.75.75-.75h10c.41406,0,.75.33594.75.75s-.33594.75-.75.75Z"/><path fill="var(--iconPrimary, #222)" d="m17.25,4.52148H7.25c-.41406,0-.75-.33594-.75-.75s.33594-.75.75-.75h10c.41406,0,.75.33594.75.75s-.33594.75-.75.75Z"/><circle cx="3.5" cy="3.771" r="1.5" fill="var(--iconPrimary, #222)"/><circle cx="3.5" cy="9.771" r="1.5" fill="var(--iconPrimary, #222)"/><circle cx="3.5" cy="15.771" r="1.5" fill="var(--iconPrimary, #222)"/></svg>