<svg style="background:var(--anatomy-gray-100);padding:60px 10px" height="32" viewBox="0 0 79 32"><g id="Placement_Area" fill="red" stroke="rgba(0,0,0,0)" stroke-width="1" data-name="Placement Area" opacity="0"><rect width="79" height="32" stroke="none"/><rect width="78" height="31" x=".5" y=".5" fill="none"/></g><g id="Box" fill="var(--anatomy-gray-700)" stroke="rgba(0,0,0,0)" stroke-width="1" transform="translate(0 9)"><rect width="14" height="14" stroke="none" rx="2"/><rect width="13" height="13" x=".5" y=".5" fill="none" rx="1.5"/></g><g id="Checkmark"><g id="Frame" fill="var(--anatomy-gray-600)" stroke="rgba(0,0,0,0)" stroke-width="1" opacity="0" transform="translate(2 11)"><rect width="10" height="10" stroke="none"/><rect width="9" height="9" x=".5" y=".5" fill="none"/></g><path id="Shape" fill="var(--anatomy-gray-75)" d="M3.788,9A1,1,0,0,1,3,8.615l-2.288-3a1,1,0,1,1,1.576-1.23l1.5,1.991L7.712,1.385a1,1,0,1,1,1.576,1.23l-4.712,6A1,1,0,0,1,3.788,9Z" transform="translate(2 11)"/></g><text id="Text" fill="var(--anatomy-gray-800)" font-family="var(--anatomy-font)" font-size="14" transform="translate(24 20)"><tspan x="0" y="0">Subscribe</tspan></text></svg>