<svg style="background:var(--anatomy-gray-100);width:calc(100% - 20px);padding:10px;max-height:152px" height="239" viewBox="0 0 214 239"><g id="ListBox" transform="translate(-504 -100)"><g id="rectangle-12" fill="var(--anatomy-gray-50)" stroke="var(--anatomy-gray-400)" stroke-width="1.5" transform="translate(504 100)"><rect width="214" height="239" stroke="none" rx="6"/><rect width="212.5" height="237.5" x=".75" y=".75" fill="none" rx="5.25"/></g><g id="Hover" fill="var(--anatomy-gray-900)" opacity=".04"><path stroke="none" d="M0,0H212V64H0Z" transform="translate(505 131)"/><path fill="var(--anatomy-gray-900)" fill-opacity="0" stroke="none" d="M 1 1 L 1 63 L 211 63 L 211 1 L 1 1 M 0 0 L 212 0 L 212 64 L 0 64 L 0 0 Z" transform="translate(505 131)"/></g><text id="Option_1" fill="var(--anatomy-gray-800)" data-name="Option 1" font-family="var(--anatomy-font)" font-size="20" transform="translate(522 158)"><tspan x="0" y="0">Option 1</tspan></text><text id="Option_2" fill="var(--anatomy-gray-800)" data-name="Option 2" font-family="var(--anatomy-font)" font-size="20" transform="translate(522 227)"><tspan x="0" y="0">Option 2</tspan></text><g id="Checkmark" transform="translate(685 142.981)"><rect id="Frame" width="18" height="18" fill="var(--anatomy-gray-600)" opacity="0" transform="translate(0 0.019)"/><path id="Shape" fill="var(--anatomy-gray-600)" d="M5.672,13.022A1.366,1.366,0,0,1,4.6,12.509l-3.321-4A1.336,1.336,0,0,1,3.388,6.858l2.284,2.66,6.29-8a1.335,1.335,0,1,1,2.1,1.642L6.709,12.508A1.3,1.3,0,0,1,5.672,13.022Z" transform="translate(0.335 -0.673)"/></g><text id="Description" fill="var(--anatomy-gray-800)" fill-opacity=".75" font-family="var(--anatomy-font)" font-size="16" transform="translate(522 183)"><tspan x="0" y="0">Description</tspan></text><text id="Description-2" fill="var(--anatomy-gray-800)" fill-opacity=".75" data-name="Description" font-family="var(--anatomy-font)" font-size="16" transform="translate(522 252)"><tspan x="0" y="0">Description</tspan></text><text id="Option_3" fill="var(--anatomy-gray-800)" data-name="Option 3" font-family="var(--anatomy-font)" font-size="20" transform="translate(522 295)"><tspan x="0" y="0">Option 3</tspan></text><text id="Description-3" fill="var(--anatomy-gray-800)" fill-opacity=".75" data-name="Description" font-family="var(--anatomy-font)" font-size="16" transform="translate(522 320)"><tspan x="0" y="0">Description</tspan></text><text id="Detail" fill="var(--anatomy-gray-800)" font-family="var(--anatomy-font)" font-size="14" font-weight="700" letter-spacing=".06em" transform="translate(522 122)"><tspan x="0" y="0">SECTION TITLE</tspan></text></g></svg>