<svg style="background:var(--anatomy-gray-100);padding:calc((152px - 56px)/2) 10px" height="56" viewBox="0 0 176 56"><rect id="Placement_Area" width="176" height="56" fill="red" data-name="Placement Area" opacity="0"/><g id="Label"><rect id="Placement_Area-2" width="33" height="24" fill="red" data-name="Placement Area" opacity="0"/><text id="Text" fill="var(--anatomy-gray-700)" font-family="var(--anatomy-font)" font-size="12" transform="translate(0 16)"><tspan x="0" y="0">Search</tspan></text></g><g id="Field" fill="var(--anatomy-gray-50)" stroke="var(--anatomy-gray-400)" stroke-width="1" transform="translate(0 24)"><rect width="176" height="32" stroke="none" rx="4"/><rect width="175" height="31" x=".5" y=".5" fill="none" rx="3.5"/></g><text id="Text-2" fill="var(--anatomy-gray-800)" data-name="Text" font-family="var(--anatomy-font)" font-size="14" transform="translate(31 44)"><tspan x="0" y="0">Hawaii</tspan></text><g id="Close_Button" data-name="Close Button" transform="translate(144 24)"><rect id="Placement_Area-3" width="32" height="32" fill="red" data-name="Placement Area" opacity="0"/><circle id="Background" cx="16" cy="16" r="16" fill="rgba(0,0,0,0)"/><g id="Icon"><rect id="Frame" width="8" height="8" fill="var(--anatomy-gray-700)" opacity="0" transform="translate(12 12)"/><path id="Path_3124" fill="var(--anatomy-gray-700)" d="M5.238,4,7.694,1.544A.875.875,0,0,0,6.457.306L4,2.762,1.543.306A.875.875,0,0,0,.306,1.544L2.762,4,.306,6.456A.875.875,0,1,0,1.543,7.694L4,5.238,6.457,7.694A.875.875,0,1,0,7.694,6.456Z" data-name="Path 3124" transform="translate(12 12)"/></g></g><g id="Decorative_icon" data-name="Decorative icon" transform="translate(8 32)"><rect id="Placement_Area-4" width="16" height="16" fill="red" data-name="Placement Area" opacity="0"/><g id="Icon-2" data-name="Icon"><rect id="Canvas" width="16" height="16" fill="var(--anatomy-gray-700)" opacity="0"/><path id="Path_3125" fill="var(--anatomy-gray-700)" d="M14.863,13.548l-3.455-3.454a5.7,5.7,0,1,0-1.314,1.314l3.454,3.454a.933.933,0,0,0,1.315-1.315ZM2.786,6.786a4,4,0,1,1,4,4,4,4,0,0,1-4-4Z" data-name="Path 3125" transform="translate(-0.119 -0.119)"/></g></g></svg>