<svg style="background:var(--anatomy-gray-100);padding:calc((152px - 108px)/2) 10px" height="108" viewBox="0 0 231 108"><g id="Group_156666" data-name="Group 156666" transform="translate(-1610 -1745)"><g id="Rectangle_82" fill="var(--anatomy-gray-50)" stroke="var(--anatomy-gray-800)" stroke-width="1" data-name="Rectangle 82" transform="translate(1610 1745)"><rect width="231" height="50" stroke="none" rx="6"/><rect width="230" height="49" x=".5" y=".5" fill="none" rx="5.5"/></g><g id="Rectangle_84" fill="var(--anatomy-gray-50)" stroke="var(--anatomy-gray-400)" stroke-width="1" data-name="Rectangle 84" transform="translate(1610 1803)"><rect width="231" height="50" stroke="none" rx="6"/><rect width="230" height="49" x=".5" y=".5" fill="none" rx="5.5"/></g><g id="Checkbox" transform="translate(1622 1754)"><rect id="Placement_Area" width="14" height="32" fill="red" data-name="Placement Area" opacity="0"/><rect id="Box" width="14" height="14" fill="var(--anatomy-gray-800)" rx="2" transform="translate(0 9)"/><g id="Checkmark"><path id="Path_63887" fill="var(--anatomy-gray-75)" d="M9.1,1.19a.96.96,0,0,0-1.347.162L3.645,6.585l-1.417-1.7A.96.96,0,0,0,.753,6.113L2.93,8.726c.02.024.049.032.07.054a.9.9,0,0,0,.074.086.921.921,0,0,0,.134.072.937.937,0,0,0,.1.054.956.956,0,0,0,.358.079h0a.955.955,0,0,0,.372-.084.935.935,0,0,0,.1-.059.91.91,0,0,0,.14-.08.9.9,0,0,0,.072-.09c.02-.02.049-.03.068-.054L9.267,2.538A.96.96,0,0,0,9.1,1.19Z" data-name="Path 63887" transform="translate(2 11)"/></g></g><rect id="Rectangle_142244" width="179" height="20" fill="var(--anatomy-gray-300)" data-name="Rectangle 142244" rx="4" transform="translate(1648 1760)"/><rect id="Rectangle_142245" width="179" height="20" fill="var(--anatomy-gray-200)" data-name="Rectangle 142245" rx="4" transform="translate(1648 1818)"/><g id="Checkbox-2" data-name="Checkbox" transform="translate(1622 1812)"><rect id="Placement_Area-2" width="14" height="32" fill="red" data-name="Placement Area" opacity="0"/><g id="Box-2" fill="var(--anatomy-gray-75)" stroke="var(--anatomy-gray-600)" stroke-width="2" data-name="Box" transform="translate(0 9)"><rect width="14" height="14" stroke="none" rx="2"/><rect width="12" height="12" x="1" y="1" fill="none" rx="1"/></g></g></g></svg>