<svg xmlns="http://www.w3.org/2000/svg" width="96" height="96" viewBox="0 0 96 96"><defs><radialGradient id="paint0_radial_5481_122570" cx="0" cy="0" r="1" gradientTransform="translate(85.5714 63.1124) rotate(90) scale(138.607)" gradientUnits="userSpaceOnUse"><stop offset=".089" stop-color="#EB1000"/><stop offset="1" stop-color="#EB1000" stop-opacity="0"/></radialGradient><linearGradient id="paint1_linear_5481_122570" x1="69.462" x2="13.866" y1="-3.088" y2="68.993" gradientUnits="userSpaceOnUse"><stop stop-color="#FF4885"/><stop offset="1" stop-color="#FF4885" stop-opacity="0"/></linearGradient><linearGradient id="paint2_linear_5481_122570" x1="35.59" x2="46.315" y1="-36.272" y2="32.367" gradientUnits="userSpaceOnUse"><stop offset=".156" stop-color="#7A6AFD"/><stop offset="1" stop-color="#7A6AFD" stop-opacity="0"/></linearGradient><linearGradient id="paint3_linear_5481_122570" x1="-88.161" x2="92.291" y1="101.725" y2="66.061" gradientUnits="userSpaceOnUse"><stop stop-color="#30A7FE" stop-opacity="0"/><stop offset=".432" stop-color="#30A7FE" stop-opacity=".995"/><stop offset=".609" stop-color="#30A7FE"/><stop offset="1" stop-color="#30A7FE" stop-opacity="0"/></linearGradient><clipPath id="clip0_5481_122570"><rect width="96" height="96" fill="#fff" rx="10"/></clipPath></defs><clipPath id="mask0_5481_122570"><path fill="#fff" fill-rule="evenodd" d="M79.4401 20.8139C80.1255 21.6802 79.9788 22.938 79.1125 23.6233L56.0161 41.8951C55.3972 42.3847 54.5483 42.4646 53.8489 42.0991L39.1313 34.408L19.4226 51.1246C18.5803 51.8391 17.3182 51.7354 16.6037 50.893C15.8892 50.0507 15.9929 48.7886 16.8353 48.0741L37.5707 30.4866C38.1914 29.9601 39.0693 29.8623 39.7907 30.2393L54.5518 37.9532L76.6308 20.4863C77.497 19.8009 78.7548 19.9476 79.4401 20.8139ZM35.7593 51.8574C35.7593 49.9298 37.3219 48.3673 39.2494 48.3673C41.177 48.3673 42.7396 49.9298 42.7396 51.8574V70.4543C42.7396 72.3818 41.177 73.9444 39.2494 73.9444C37.3219 73.9444 35.7593 72.3818 35.7593 70.4543V51.8574ZM56.7577 51.7911C54.8302 51.7911 53.2676 53.3537 53.2676 55.2812V70.4564C53.2676 72.3839 54.8302 73.9465 56.7577 73.9465C58.6853 73.9465 60.2479 72.384 60.2479 70.4564V55.2812C60.2479 53.3537 58.6853 51.7911 56.7577 51.7911ZM70.7759 43.2363C70.7759 41.3087 72.3385 39.7462 74.266 39.7462C76.1936 39.7462 77.7562 41.3088 77.7562 43.2363V70.4558C77.7562 72.3834 76.1936 73.9459 74.266 73.9459C72.3385 73.9459 70.7759 72.3834 70.7759 70.4558V43.2363ZM21.7407 58.5645C19.8131 58.5645 18.2505 60.1271 18.2505 62.0547V70.4549C18.2505 72.3824 19.8131 73.945 21.7407 73.945C23.6682 73.945 25.2308 72.3824 25.2308 70.4549V62.0547C25.2308 60.1271 23.6682 58.5645 21.7407 58.5645Z"/></clipPath><g clip-path="url(#mask0_5481_122570)"><g clip-path="url(#clip0_5481_122570)"><rect width="96" height="96" fill="#D9F4FD" rx="10"/><circle cx="85.571" cy="63.112" r="138.607" fill="url(#paint0_radial_5481_122570)"/><path fill="url(#paint1_linear_5481_122570)" d="M-8.63919 30.067C-10.18 -3.11477 15.4702 -31.263 48.652 -32.8037C81.8337 -34.3445 109.982 -8.69438 111.523 24.4874C113.063 57.6692 87.4133 85.8174 54.2316 87.3582C21.0498 88.8989 -7.09842 63.2488 -8.63919 30.067Z"/><path fill="url(#paint2_linear_5481_122570)" d="M24.2526 -66.43C16.7672 -71.0619 7.28331 -71.0903 -0.22988 -66.5032L-75.3753 -20.6218C-82.7348 -16.1282 -82.7471 -5.52169 -75.3976 -1.01111L-0.748691 44.8052C6.75324 49.4089 16.2372 49.4034 23.7327 44.7888L98.2278 -1.0704C105.538 -5.57135 105.552 -16.1186 98.2501 -20.6366L24.2526 -66.43Z"/><path fill="url(#paint3_linear_5481_122570)" d="M-47.8586 45.9177C-32.3701 45.9177 -18.3401 52.1863 -8.18231 62.2992C12.1334 82.5597 28.9763 82.577 49.2919 62.3512C59.4498 52.1863 73.4971 45.9004 89.003 45.9004C119.997 45.9177 145.105 70.9575 145.105 101.868C145.105 132.778 119.997 157.8 89.003 157.8C73.4624 157.8 59.415 151.497 49.2572 141.332C28.9589 121.141 12.1334 121.158 -8.18231 141.419C-18.3401 151.549 -32.3701 157.8 -47.8586 157.8C-78.8357 157.8 -103.944 132.761 -103.944 101.868C-103.944 70.9749 -78.8357 45.9177 -47.8586 45.9177Z"/></g></g></svg>