<svg xmlns="http://www.w3.org/2000/svg" width="48" height="48" viewBox="0 0 48 48"><defs><radialGradient id="paint0_radial_5481_122276" cx="0" cy="0" r="1" gradientTransform="translate(39.1062 30.3118) rotate(90) scale(51.2844 54.4031)" gradientUnits="userSpaceOnUse"><stop offset=".089" stop-color="#EB1000"/><stop offset="1" stop-color="#EB1000" stop-opacity="0"/></radialGradient><linearGradient id="paint1_linear_5481_122276" x1="32.783" x2="12.551" y1="5.818" y2="33.644" gradientUnits="userSpaceOnUse"><stop stop-color="#FF4885"/><stop offset="1" stop-color="#FF4885" stop-opacity="0"/></linearGradient><linearGradient id="paint2_linear_5481_122276" x1="19.489" x2="23.239" y1="-6.46" y2="19.004" gradientUnits="userSpaceOnUse"><stop offset=".156" stop-color="#7A6AFD"/><stop offset="1" stop-color="#7A6AFD" stop-opacity="0"/></linearGradient><linearGradient id="paint3_linear_5481_122276" x1="-29.084" x2="41.411" y1="44.599" y2="29.819" gradientUnits="userSpaceOnUse"><stop stop-color="#30A7FE" stop-opacity="0"/><stop offset=".432" stop-color="#30A7FE" stop-opacity=".995"/><stop offset=".609" stop-color="#30A7FE"/><stop offset="1" stop-color="#30A7FE" stop-opacity="0"/></linearGradient><clipPath id="clip0_5481_122276"><rect width="37.68" height="35.52" x="5.52" y="6.96" fill="#fff" rx="10"/></clipPath></defs><clipPath id="mask0_5481_122276"><path fill="#fff" fill-rule="evenodd" stroke="#fff" stroke-linecap="round" stroke-linejoin="round" stroke-width=".6" d="M36.9601 17.3637C38.7143 15.6095 38.7143 12.7653 36.9601 11.011C35.2058 9.25679 32.3616 9.25679 30.6074 11.011L27.3336 14.2848C26.865 14.7535 26.1052 14.7535 25.6365 14.2848C25.1679 13.8162 25.1679 13.0564 25.6365 12.5878L28.9103 9.31397C31.6018 6.62247 35.9656 6.62248 38.6571 9.31398C41.3487 12.0055 41.3487 16.3693 38.6572 19.0608L30.3558 27.3622C27.6643 30.0537 23.3005 30.0537 20.609 27.3622C20.1404 26.8935 20.1404 26.1337 20.609 25.6651C21.0776 25.1965 21.8374 25.1965 22.306 25.6651C24.0603 27.4193 26.9045 27.4193 28.6587 25.6651L36.9601 17.3637ZM27.4634 20.5689C27.9321 21.0376 27.9321 21.7974 27.4634 22.266C26.9948 22.7346 26.235 22.7346 25.7664 22.266C24.0121 20.5117 21.1679 20.5117 19.4137 22.266L11.1123 30.5674C9.35807 32.3216 9.35807 35.1658 11.1123 36.9201C12.8666 38.6743 15.7108 38.6743 17.465 36.9201L20.7388 33.6463C21.2074 33.1776 21.9672 33.1776 22.4359 33.6463C22.9045 34.1149 22.9045 34.8747 22.4359 35.3433L19.1621 38.6171C16.4706 41.3086 12.1068 41.3086 9.41526 38.6171C6.72375 35.9256 6.72375 31.5618 9.41526 28.8703L17.7166 20.5689C20.4081 17.8774 24.7719 17.8774 27.4634 20.5689Z"/></clipPath><g clip-path="url(#mask0_5481_122276)"><g clip-path="url(#clip0_5481_122276)"><rect width="37.68" height="35.52" x="5.52" y="6.96" fill="#D9F4FD" rx="10"/><ellipse cx="39.106" cy="30.312" fill="url(#paint0_radial_5481_122276)" rx="54.403" ry="51.284"/><path fill="url(#paint1_linear_5481_122276)" d="M2.12818 18.0855C1.52343 5.80821 11.5911 -4.60662 24.615 -5.1767C37.6388 -5.74678 48.687 3.74376 49.2917 16.021C49.8965 28.2983 39.8288 38.7131 26.8049 39.2832C13.7811 39.8533 2.73293 30.3627 2.12818 18.0855Z"/><path fill="url(#paint2_linear_5481_122276)" d="M15.0389 -17.6184C12.1009 -19.3322 8.3785 -19.3427 5.42957 -17.6455L-24.065 -0.669388C-26.9536 0.99324 -26.9584 4.91766 -24.0738 6.58657L5.22594 23.5386C8.17045 25.242 11.8929 25.2399 14.8349 23.5325L44.0742 6.56464C46.9436 4.89929 46.9489 0.996799 44.083 -0.674839L15.0389 -17.6184Z"/><path fill="url(#paint3_linear_5481_122276)" d="M-13.2658 23.9498C-7.18652 23.9498 -1.67976 26.2692 2.30719 30.0109C10.2811 37.5073 16.8919 37.5137 24.8658 30.0302C28.8528 26.2692 34.3664 23.9434 40.4524 23.9434C52.6177 23.9498 62.4727 33.2145 62.4727 44.6513C62.4727 56.088 52.6177 65.3464 40.4524 65.3464C34.3527 65.3464 28.8392 63.0142 24.8522 59.2532C16.8851 51.7824 10.2811 51.7888 2.30719 59.2852C-1.67976 63.0334 -7.18652 65.3464 -13.2658 65.3464C-25.4243 65.3464 -35.2792 56.0816 -35.2792 44.6513C-35.2792 33.2209 -25.4243 23.9498 -13.2658 23.9498Z"/></g></g></svg>