<svg xmlns="http://www.w3.org/2000/svg" width="96" height="96" viewBox="0 0 96 96"><defs><radialGradient id="paint0_radial_5481_122469" cx="0" cy="0" r="1" gradientTransform="translate(78.2124 60.6236) rotate(90) scale(102.569 108.806)" gradientUnits="userSpaceOnUse"><stop offset=".089" stop-color="#EB1000"/><stop offset="1" stop-color="#EB1000" stop-opacity="0"/></radialGradient><linearGradient id="paint1_linear_5481_122469" x1="65.566" x2="25.102" y1="11.636" y2="67.288" gradientUnits="userSpaceOnUse"><stop stop-color="#FF4885"/><stop offset="1" stop-color="#FF4885" stop-opacity="0"/></linearGradient><linearGradient id="paint2_linear_5481_122469" x1="38.978" x2="46.479" y1="-12.92" y2="38.008" gradientUnits="userSpaceOnUse"><stop offset=".156" stop-color="#7A6AFD"/><stop offset="1" stop-color="#7A6AFD" stop-opacity="0"/></linearGradient><linearGradient id="paint3_linear_5481_122469" x1="-58.165" x2="82.825" y1="89.197" y2="59.638" gradientUnits="userSpaceOnUse"><stop stop-color="#30A7FE" stop-opacity="0"/><stop offset=".432" stop-color="#30A7FE" stop-opacity=".995"/><stop offset=".609" stop-color="#30A7FE"/><stop offset="1" stop-color="#30A7FE" stop-opacity="0"/></linearGradient><clipPath id="clip0_5481_122469"><rect width="75.36" height="71.04" x="11.039" y="13.92" fill="#fff" rx="10"/></clipPath></defs><clipPath id="mask0_5481_122469"><path fill="#fff" fill-rule="evenodd" d="M81.5984 48.0004C81.5984 66.5572 66.5552 81.6004 47.9984 81.6004C29.4417 81.6004 14.3984 66.5572 14.3984 48.0004C14.3984 29.4436 29.4417 14.4004 47.9984 14.4004C66.5552 14.4004 81.5984 29.4436 81.5984 48.0004ZM45.598 24.6004L45.598 47.9345C45.5932 48.1161 45.609 48.297 45.6447 48.4738C45.6809 48.6551 45.7376 48.829 45.8123 48.9931C45.9969 49.4005 46.2968 49.76 46.6973 50.0177C46.7392 50.0447 46.7819 50.0705 46.8255 50.095L59.8899 57.6377C61.0378 58.3004 62.5056 57.9071 63.1683 56.7592C63.8311 55.6113 63.4378 54.1435 62.2899 53.4808L50.398 46.615V24.6004C50.398 23.2749 49.3235 22.2004 47.998 22.2004C46.6725 22.2004 45.598 23.2749 45.598 24.6004Z"/></clipPath><g clip-path="url(#mask0_5481_122469)"><g clip-path="url(#clip0_5481_122469)"><rect width="75.36" height="71.04" x="11.039" y="13.92" fill="#D9F4FD" rx="10"/><ellipse cx="78.212" cy="60.624" fill="url(#paint0_radial_5481_122469)" rx="108.806" ry="102.569"/><path fill="url(#paint1_linear_5481_122469)" d="M4.25636 36.171C3.04686 11.6164 23.1822 -9.21323 49.2299 -10.3534C75.2776 -11.4936 97.3739 7.48752 98.5834 32.0421C99.7929 56.5966 79.6576 77.4262 53.6099 78.5664C27.5622 79.7066 5.46586 60.7255 4.25636 36.171Z"/><path fill="url(#paint2_linear_5481_122469)" d="M30.0779 -35.2368C24.2019 -38.6645 16.757 -38.6854 10.8591 -35.291L-48.13 -1.33878C-53.9073 1.98648 -53.9169 9.83532 -48.1475 13.1731L10.4519 47.0772C16.3409 50.4839 23.7858 50.4799 29.6697 47.0651L88.1484 13.1293C93.8873 9.79858 93.8977 1.9936 88.1659 -1.34968L30.0779 -35.2368Z"/><path fill="url(#paint3_linear_5481_122469)" d="M-26.5276 47.8995C-14.3691 47.8995 -3.35561 52.5383 4.61829 60.0219C20.5661 75.0146 33.7878 75.0274 49.7356 60.0603C57.7095 52.5383 68.7366 47.8867 80.9088 47.8867C105.239 47.8995 124.949 66.429 124.949 89.3025C124.949 112.176 105.239 130.693 80.9088 130.693C68.7094 130.693 57.6822 126.028 49.7083 118.506C33.7741 103.565 20.5661 103.578 4.61829 118.57C-3.35561 126.067 -14.3691 130.693 -26.5276 130.693C-50.8446 130.693 -70.5544 112.163 -70.5544 89.3025C-70.5544 66.4418 -50.8446 47.8995 -26.5276 47.8995Z"/></g></g></svg>