<svg xmlns="http://www.w3.org/2000/svg" width="48" height="48" viewBox="0 0 48 48"><defs><radialGradient id="paint0_radial_5481_122420" cx="0" cy="0" r="1" gradientTransform="translate(42.7877 31.5552) rotate(90) scale(69.3033)" gradientUnits="userSpaceOnUse"><stop offset=".089" stop-color="#EB1000"/><stop offset="1" stop-color="#EB1000" stop-opacity="0"/></radialGradient><linearGradient id="paint1_linear_5481_122420" x1="34.731" x2="6.933" y1="-1.543" y2="34.498" gradientUnits="userSpaceOnUse"><stop stop-color="#FF4885"/><stop offset="1" stop-color="#FF4885" stop-opacity="0"/></linearGradient><linearGradient id="paint2_linear_5481_122420" x1="17.793" x2="23.155" y1="-18.135" y2="16.184" gradientUnits="userSpaceOnUse"><stop offset=".156" stop-color="#7A6AFD"/><stop offset="1" stop-color="#7A6AFD" stop-opacity="0"/></linearGradient><linearGradient id="paint3_linear_5481_122420" x1="-44.078" x2="46.147" y1="50.862" y2="33.03" gradientUnits="userSpaceOnUse"><stop stop-color="#30A7FE" stop-opacity="0"/><stop offset=".432" stop-color="#30A7FE" stop-opacity=".995"/><stop offset=".609" stop-color="#30A7FE"/><stop offset="1" stop-color="#30A7FE" stop-opacity="0"/></linearGradient><clipPath id="clip0_5481_122420"><rect width="48" height="48" fill="#fff" rx="10"/></clipPath></defs><clipPath id="mask0_5481_122420"><path fill="#fff" fill-rule="evenodd" d="M13.866 13.0179L28.9037 8.98857C29.9706 8.70268 31.0673 9.33585 31.3532 10.4028L32.7782 15.721H12.5903L12.5 15.3839C12.2239 14.3533 12.8354 13.294 13.866 13.0179ZM34 19.0804H9C8.44772 19.0804 8 19.5281 8 20.0804V38.0804C8 38.6327 8.44772 39.0804 9 39.0804H34C36.2091 39.0804 38 37.2895 38 35.0804V34.0801H31C29.7574 34.0801 28.75 33.0727 28.75 31.8301V26.3301C28.75 25.0874 29.7574 24.0801 31 24.0801H38V23.0804C38 20.8713 36.2091 19.0804 34 19.0804ZM31.25 26.5801V31.5801H38.75V26.5801H31.25ZM34 30.7051C34.8284 30.7051 35.5 30.0335 35.5 29.2051C35.5 28.3767 34.8284 27.7051 34 27.7051C33.1716 27.7051 32.5 28.3767 32.5 29.2051C32.5 30.0335 33.1716 30.7051 34 30.7051Z"/></clipPath><g clip-path="url(#mask0_5481_122420)"><g clip-path="url(#clip0_5481_122420)"><rect width="48" height="48" fill="#D9F4FD" rx="10"/><circle cx="42.788" cy="31.555" r="69.303" fill="url(#paint0_radial_5481_122420)"/><path fill="url(#paint1_linear_5481_122420)" d="M-4.31959 15.0345C-5.08998 -1.55641 7.73508 -15.6305 24.326 -16.4009C40.9169 -17.1713 54.991 -4.34621 55.7613 12.2447C56.5317 28.8356 43.7067 42.9097 27.1158 43.6801C10.5249 44.4504 -3.54921 31.6254 -4.31959 15.0345Z"/><path fill="url(#paint2_linear_5481_122420)" d="M12.1243 -33.214C8.38167 -35.53 3.6397 -35.5442 -0.116893 -33.2506L-37.6896 -10.3099C-41.3694 -8.06314 -41.3755 -2.75987 -37.7007 -0.504581L-0.376298 22.4036C3.37467 24.7054 8.11665 24.7027 11.8644 22.3954L49.1119 -0.534222C52.7672 -2.7847 52.7739 -8.05833 49.1231 -10.3173L12.1243 -33.214Z"/><path fill="url(#paint3_linear_5481_122420)" d="M-23.9274 22.9579C-16.1831 22.9579 -9.16812 26.0922 -4.0892 31.1486C6.06863 41.2789 14.4901 41.2875 24.6479 31.1746C29.7268 26.0922 36.7505 22.9492 44.5034 22.9492C60.0006 22.9579 72.5547 35.4778 72.5547 50.9329C72.5547 66.388 60.0006 78.8992 44.5034 78.8992C36.7331 78.8992 29.7095 75.7476 24.6306 70.6652C14.4814 60.5696 6.06863 60.5782 -4.0892 70.7085C-9.16812 75.7736 -16.1831 78.8992 -23.9274 78.8992C-39.4159 78.8992 -51.9699 66.3793 -51.9699 50.9329C-51.9699 35.4865 -39.4159 22.9579 -23.9274 22.9579Z"/></g></g></svg>