<svg xmlns="http://www.w3.org/2000/svg" width="48" height="48" viewBox="0 0 48 48"><defs><radialGradient id="paint0_radial_5481_122396" cx="0" cy="0" r="1" gradientTransform="translate(42.7877 31.5552) rotate(90) scale(69.3033)" gradientUnits="userSpaceOnUse"><stop offset=".089" stop-color="#EB1000"/><stop offset="1" stop-color="#EB1000" stop-opacity="0"/></radialGradient><linearGradient id="paint1_linear_5481_122396" x1="34.731" x2="6.933" y1="-1.543" y2="34.498" gradientUnits="userSpaceOnUse"><stop stop-color="#FF4885"/><stop offset="1" stop-color="#FF4885" stop-opacity="0"/></linearGradient><linearGradient id="paint2_linear_5481_122396" x1="17.793" x2="23.155" y1="-18.135" y2="16.184" gradientUnits="userSpaceOnUse"><stop offset=".156" stop-color="#7A6AFD"/><stop offset="1" stop-color="#7A6AFD" stop-opacity="0"/></linearGradient><linearGradient id="paint3_linear_5481_122396" x1="-44.078" x2="46.147" y1="50.862" y2="33.03" gradientUnits="userSpaceOnUse"><stop stop-color="#30A7FE" stop-opacity="0"/><stop offset=".432" stop-color="#30A7FE" stop-opacity=".995"/><stop offset=".609" stop-color="#30A7FE"/><stop offset="1" stop-color="#30A7FE" stop-opacity="0"/></linearGradient><clipPath id="clip0_5481_122396"><rect width="48" height="48" fill="#fff" rx="10"/></clipPath></defs><clipPath id="mask0_5481_122396"><path fill="#fff" fill-rule="evenodd" d="M35.3839 24.3839L42.3839 17.3839C42.872 16.8957 42.872 16.1043 42.3839 15.6161L35.3839 8.61612C34.8957 8.12796 34.1043 8.12796 33.6161 8.61612C33.128 9.10427 33.128 9.89573 33.6161 10.3839L38.2502 15.018H18.7012C11.7944 15.018 6.19531 20.6171 6.19531 27.5239C6.19531 34.4307 11.7944 40.0297 18.7012 40.0297H26.6757C27.3661 40.0297 27.9257 39.4701 27.9257 38.7797C27.9257 38.0894 27.3661 37.5297 26.6757 37.5297H18.7012C13.1751 37.5297 8.69531 33.05 8.69531 27.5239C8.69531 21.9978 13.1751 17.518 18.7012 17.518H38.7142L33.6161 22.6161C33.128 23.1043 33.128 23.8957 33.6161 24.3839C34.1043 24.872 34.8957 24.872 35.3839 24.3839Z"/></clipPath><g clip-path="url(#mask0_5481_122396)"><g clip-path="url(#clip0_5481_122396)"><rect width="48" height="48" fill="#D9F4FD" rx="10"/><circle cx="42.788" cy="31.555" r="69.303" fill="url(#paint0_radial_5481_122396)"/><path fill="url(#paint1_linear_5481_122396)" d="M-4.31959 15.0345C-5.08998 -1.55641 7.73508 -15.6305 24.326 -16.4009C40.9169 -17.1713 54.991 -4.34621 55.7613 12.2447C56.5317 28.8356 43.7067 42.9097 27.1158 43.6801C10.5249 44.4504 -3.54921 31.6254 -4.31959 15.0345Z"/><path fill="url(#paint2_linear_5481_122396)" d="M12.1243 -33.214C8.38167 -35.53 3.6397 -35.5442 -0.116893 -33.2506L-37.6896 -10.3099C-41.3694 -8.06314 -41.3755 -2.75987 -37.7007 -0.504581L-0.376298 22.4036C3.37467 24.7054 8.11665 24.7027 11.8644 22.3954L49.1119 -0.534222C52.7672 -2.7847 52.7739 -8.05833 49.1231 -10.3173L12.1243 -33.214Z"/><path fill="url(#paint3_linear_5481_122396)" d="M-23.9274 22.9579C-16.1831 22.9579 -9.16812 26.0922 -4.0892 31.1486C6.06863 41.2789 14.4901 41.2875 24.6479 31.1746C29.7268 26.0922 36.7505 22.9492 44.5034 22.9492C60.0006 22.9579 72.5547 35.4778 72.5547 50.9329C72.5547 66.388 60.0006 78.8992 44.5034 78.8992C36.7331 78.8992 29.7095 75.7476 24.6306 70.6652C14.4814 60.5696 6.06863 60.5782 -4.0892 70.7085C-9.16812 75.7736 -16.1831 78.8992 -23.9274 78.8992C-39.4159 78.8992 -51.9699 66.3793 -51.9699 50.9329C-51.9699 35.4865 -39.4159 22.9579 -23.9274 22.9579Z"/></g></g></svg>