<svg xmlns="http://www.w3.org/2000/svg" width="96" height="96" viewBox="0 0 96 96"><defs><radialGradient id="paint0_radial_5481_122565" cx="0" cy="0" r="1" gradientTransform="translate(85.5714 63.1124) rotate(90) scale(138.607)" gradientUnits="userSpaceOnUse"><stop offset=".089" stop-color="#EB1000"/><stop offset="1" stop-color="#EB1000" stop-opacity="0"/></radialGradient><linearGradient id="paint1_linear_5481_122565" x1="69.462" x2="13.866" y1="-3.088" y2="68.993" gradientUnits="userSpaceOnUse"><stop stop-color="#FF4885"/><stop offset="1" stop-color="#FF4885" stop-opacity="0"/></linearGradient><linearGradient id="paint2_linear_5481_122565" x1="35.59" x2="46.315" y1="-36.272" y2="32.367" gradientUnits="userSpaceOnUse"><stop offset=".156" stop-color="#7A6AFD"/><stop offset="1" stop-color="#7A6AFD" stop-opacity="0"/></linearGradient><linearGradient id="paint3_linear_5481_122565" x1="-88.161" x2="92.291" y1="101.725" y2="66.061" gradientUnits="userSpaceOnUse"><stop stop-color="#30A7FE" stop-opacity="0"/><stop offset=".432" stop-color="#30A7FE" stop-opacity=".995"/><stop offset=".609" stop-color="#30A7FE"/><stop offset="1" stop-color="#30A7FE" stop-opacity="0"/></linearGradient><clipPath id="clip0_5481_122565"><rect width="96" height="96" fill="#fff" rx="10"/></clipPath></defs><clipPath id="mask0_5481_122565"><path fill="#fff" fill-rule="evenodd" d="M76.379 28.3608L52.3919 14.1209C49.8867 12.6337 46.7712 12.6259 44.2587 14.1005L19.9507 28.367C19.1487 28.8377 18.4481 29.436 17.8685 30.1277L48.1574 46.2831L78.6547 30.3863C78.0423 29.5838 77.2746 28.8925 76.379 28.3608ZM16 35.2665C16 34.7495 16.0499 34.2395 16.1463 33.7426L46.3311 49.8424L46.3311 83.2352C45.6796 83.069 45.0442 82.8193 44.441 82.4861L20.1319 69.0583C17.5826 67.6502 16 64.9679 16 62.0556V35.2665ZM50.3311 83.2239C50.9795 83.0545 51.6115 82.8023 52.2112 82.4673L76.1973 69.0656C78.7275 67.6519 80.2952 64.9802 80.2952 62.0818V35.2399C80.2952 34.8503 80.2668 34.4647 80.2116 34.0855L50.3311 49.6608L50.3311 83.2239Z"/></clipPath><g clip-path="url(#mask0_5481_122565)"><g clip-path="url(#clip0_5481_122565)"><rect width="96" height="96" fill="#D9F4FD" rx="10"/><circle cx="85.571" cy="63.112" r="138.607" fill="url(#paint0_radial_5481_122565)"/><path fill="url(#paint1_linear_5481_122565)" d="M-8.63919 30.067C-10.18 -3.11477 15.4702 -31.263 48.652 -32.8037C81.8337 -34.3445 109.982 -8.69438 111.523 24.4874C113.063 57.6692 87.4133 85.8174 54.2316 87.3582C21.0498 88.8989 -7.09842 63.2488 -8.63919 30.067Z"/><path fill="url(#paint2_linear_5481_122565)" d="M24.2526 -66.43C16.7672 -71.0619 7.28331 -71.0903 -0.22988 -66.5032L-75.3753 -20.6218C-82.7348 -16.1282 -82.7471 -5.52169 -75.3976 -1.01111L-0.748691 44.8052C6.75324 49.4089 16.2372 49.4034 23.7327 44.7888L98.2278 -1.0704C105.538 -5.57135 105.552 -16.1186 98.2501 -20.6366L24.2526 -66.43Z"/><path fill="url(#paint3_linear_5481_122565)" d="M-47.8586 45.9177C-32.3701 45.9177 -18.3401 52.1863 -8.18231 62.2992C12.1334 82.5597 28.9763 82.577 49.2919 62.3512C59.4498 52.1863 73.4971 45.9004 89.003 45.9004C119.997 45.9177 145.105 70.9575 145.105 101.868C145.105 132.778 119.997 157.8 89.003 157.8C73.4624 157.8 59.415 151.497 49.2572 141.332C28.9589 121.141 12.1334 121.158 -8.18231 141.419C-18.3401 151.549 -32.3701 157.8 -47.8586 157.8C-78.8357 157.8 -103.944 132.761 -103.944 101.868C-103.944 70.9749 -78.8357 45.9177 -47.8586 45.9177Z"/></g></g></svg>