<svg xmlns="http://www.w3.org/2000/svg" width="48" height="48" viewBox="0 0 48 48"><defs><radialGradient id="paint0_radial_5481_122354" cx="0" cy="0" r="1" gradientTransform="translate(42.7877 31.5552) rotate(90) scale(69.3033)" gradientUnits="userSpaceOnUse"><stop offset=".089" stop-color="#EB1000"/><stop offset="1" stop-color="#EB1000" stop-opacity="0"/></radialGradient><linearGradient id="paint1_linear_5481_122354" x1="34.731" x2="6.933" y1="-1.543" y2="34.498" gradientUnits="userSpaceOnUse"><stop stop-color="#FF4885"/><stop offset="1" stop-color="#FF4885" stop-opacity="0"/></linearGradient><linearGradient id="paint2_linear_5481_122354" x1="17.793" x2="23.155" y1="-18.135" y2="16.184" gradientUnits="userSpaceOnUse"><stop offset=".156" stop-color="#7A6AFD"/><stop offset="1" stop-color="#7A6AFD" stop-opacity="0"/></linearGradient><linearGradient id="paint3_linear_5481_122354" x1="-44.078" x2="46.147" y1="50.862" y2="33.03" gradientUnits="userSpaceOnUse"><stop stop-color="#30A7FE" stop-opacity="0"/><stop offset=".432" stop-color="#30A7FE" stop-opacity=".995"/><stop offset=".609" stop-color="#30A7FE"/><stop offset="1" stop-color="#30A7FE" stop-opacity="0"/></linearGradient><clipPath id="clip0_5481_122354"><rect width="48" height="48" fill="#fff" rx="10"/></clipPath></defs><clipPath id="mask0_5481_122354"><path fill="#292929" fill-rule="evenodd" d="M36.4403 25.2558C37.7882 24.0757 39.2516 22.792 39.7997 20.5293C41.2098 14.6818 35.0332 8.5 25.7699 8.5C16.5066 8.5 9 16.069 9 25.4067C9 34.7444 17.6382 41.5 26.8986 41.5C31.9909 41.5 39.7997 38.4121 39.3138 34.8361C39.0176 32.6474 37.5749 32.3634 36.2389 32.1031C35.0925 31.8783 34.026 31.6683 33.8305 30.287C33.4839 27.8498 34.8821 26.6223 36.4374 25.2618L36.4403 25.2558ZM18.8735 32.8751C17.2383 32.8751 15.9112 31.55 15.9112 29.9173C15.9112 28.2846 17.2383 26.9595 18.8735 26.9595C20.5088 26.9595 21.8359 28.2846 21.8359 29.9173C21.8359 31.55 20.5088 32.8751 18.8735 32.8751ZM18.8735 23.2446C17.2383 23.2446 15.9112 21.9195 15.9112 20.2868C15.9112 18.6541 17.2383 17.329 18.8735 17.329C20.5088 17.329 21.8359 18.6541 21.8359 20.2868C21.8359 21.9195 20.5088 23.2446 18.8735 23.2446ZM26.2795 37.0899C24.6442 37.0899 23.3171 35.7649 23.3171 34.1322C23.3171 32.4995 24.6442 31.1744 26.2795 31.1744C27.9147 31.1744 29.2418 32.4995 29.2418 34.1322C29.2418 35.7649 27.9147 37.0899 26.2795 37.0899ZM26.2795 19.3432C24.6442 19.3432 23.3171 18.0181 23.3171 16.3855C23.3171 14.7528 24.6442 13.4277 26.2795 13.4277C27.9147 13.4277 29.2418 14.7528 29.2418 16.3855C29.2418 18.0181 27.9147 19.3432 26.2795 19.3432Z"/></clipPath><g clip-path="url(#mask0_5481_122354)"><g clip-path="url(#clip0_5481_122354)"><rect width="48" height="48" fill="#D9F4FD" rx="10"/><circle cx="42.788" cy="31.555" r="69.303" fill="url(#paint0_radial_5481_122354)"/><path fill="url(#paint1_linear_5481_122354)" d="M-4.31959 15.0345C-5.08998 -1.55641 7.73508 -15.6305 24.326 -16.4009C40.9169 -17.1713 54.991 -4.34621 55.7613 12.2447C56.5317 28.8356 43.7067 42.9097 27.1158 43.6801C10.5249 44.4504 -3.54921 31.6254 -4.31959 15.0345Z"/><path fill="url(#paint2_linear_5481_122354)" d="M12.1243 -33.214C8.38167 -35.53 3.6397 -35.5442 -0.116893 -33.2506L-37.6896 -10.3099C-41.3694 -8.06314 -41.3755 -2.75987 -37.7007 -0.504581L-0.376298 22.4036C3.37467 24.7054 8.11665 24.7027 11.8644 22.3954L49.1119 -0.534222C52.7672 -2.7847 52.7739 -8.05833 49.1231 -10.3173L12.1243 -33.214Z"/><path fill="url(#paint3_linear_5481_122354)" d="M-23.9274 22.9579C-16.1831 22.9579 -9.16812 26.0922 -4.0892 31.1486C6.06863 41.2789 14.4901 41.2875 24.6479 31.1746C29.7268 26.0922 36.7505 22.9492 44.5034 22.9492C60.0006 22.9579 72.5547 35.4778 72.5547 50.9329C72.5547 66.388 60.0006 78.8992 44.5034 78.8992C36.7331 78.8992 29.7095 75.7476 24.6306 70.6652C14.4814 60.5696 6.06863 60.5782 -4.0892 70.7085C-9.16812 75.7736 -16.1831 78.8992 -23.9274 78.8992C-39.4159 78.8992 -51.9699 66.3793 -51.9699 50.9329C-51.9699 35.4865 -39.4159 22.9579 -23.9274 22.9579Z"/></g></g></svg>