<svg xmlns="http://www.w3.org/2000/svg" width="48" height="48" viewBox="0 0 48 48"><defs><radialGradient id="paint0_radial_5481_122326" cx="0" cy="0" r="1" gradientTransform="translate(39.1062 30.3118) rotate(90) scale(51.2844 54.4031)" gradientUnits="userSpaceOnUse"><stop offset=".089" stop-color="#EB1000"/><stop offset="1" stop-color="#EB1000" stop-opacity="0"/></radialGradient><linearGradient id="paint1_linear_5481_122326" x1="32.783" x2="12.551" y1="5.819" y2="33.645" gradientUnits="userSpaceOnUse"><stop stop-color="#FF4885"/><stop offset="1" stop-color="#FF4885" stop-opacity="0"/></linearGradient><linearGradient id="paint2_linear_5481_122326" x1="19.489" x2="23.239" y1="-6.459" y2="19.005" gradientUnits="userSpaceOnUse"><stop offset=".156" stop-color="#7A6AFD"/><stop offset="1" stop-color="#7A6AFD" stop-opacity="0"/></linearGradient><linearGradient id="paint3_linear_5481_122326" x1="-29.084" x2="41.411" y1="44.599" y2="29.819" gradientUnits="userSpaceOnUse"><stop stop-color="#30A7FE" stop-opacity="0"/><stop offset=".432" stop-color="#30A7FE" stop-opacity=".995"/><stop offset=".609" stop-color="#30A7FE"/><stop offset="1" stop-color="#30A7FE" stop-opacity="0"/></linearGradient><clipPath id="clip0_5481_122326"><rect width="37.68" height="35.52" x="5.52" y="6.961" fill="#fff" rx="10"/></clipPath></defs><clipPath id="mask0_5481_122326"><path fill="#fff" fill-rule="evenodd" d="M34.5 14.6992H37.2C39.852 14.6992 42 16.8472 42 19.4992V26.0992H34.5V25.4992C34.5 24.8362 33.963 24.2992 33.3 24.2992C32.637 24.2992 32.1 24.8362 32.1 25.4992V26.0992H15.9V25.4992C15.9 24.8362 15.363 24.2992 14.7 24.2992C14.037 24.2992 13.5 24.8362 13.5 25.4992V26.0992H6V19.4992C6 16.8472 8.148 14.6992 10.8 14.6992H13.5V11.3992C13.5 9.08322 15.384 7.19922 17.7 7.19922H30.3C32.616 7.19922 34.5 9.08322 34.5 11.3992V14.6992ZM15.9 14.6992H32.1V11.3992C32.1 10.4062 31.293 9.59922 30.3 9.59922H17.7C16.707 9.59922 15.9 10.4062 15.9 11.3992V14.6992ZM33.3 30.5992C33.963 30.5992 34.5 30.0622 34.5 29.3992V28.4992H42V34.7992C42 37.4512 39.852 39.5992 37.2 39.5992H10.8C8.148 39.5992 6 37.4512 6 34.7992V28.4992H13.5V29.3992C13.5 30.0622 14.037 30.5992 14.7 30.5992C15.363 30.5992 15.9 30.0622 15.9 29.3992V28.4992H32.1V29.3992C32.1 30.0622 32.637 30.5992 33.3 30.5992Z"/></clipPath><g clip-path="url(#mask0_5481_122326)"><g clip-path="url(#clip0_5481_122326)"><rect width="37.68" height="35.52" x="5.52" y="6.961" fill="#D9F4FD" rx="10"/><ellipse cx="39.106" cy="30.312" fill="url(#paint0_radial_5481_122326)" rx="54.403" ry="51.284"/><path fill="url(#paint1_linear_5481_122326)" d="M2.12818 18.0865C1.52343 5.80919 11.5911 -4.60564 24.615 -5.17572C37.6388 -5.74581 48.687 3.74473 49.2917 16.022C49.8965 28.2993 39.8288 38.7141 26.8049 39.2842C13.7811 39.8543 2.73293 30.3637 2.12818 18.0865Z"/><path fill="url(#paint2_linear_5481_122326)" d="M15.0389 -17.6174C12.1009 -19.3312 8.3785 -19.3417 5.42957 -17.6445L-24.065 -0.668411C-26.9536 0.994216 -26.9584 4.91864 -24.0738 6.58755L5.22594 23.5396C8.17045 25.2429 11.8929 25.2409 14.8349 23.5335L44.0742 6.56562C46.9436 4.90026 46.9489 0.997775 44.083 -0.673862L15.0389 -17.6174Z"/><path fill="url(#paint3_linear_5481_122326)" d="M-13.2658 23.9498C-7.18652 23.9498 -1.67976 26.2692 2.30719 30.0109C10.2811 37.5073 16.8919 37.5137 24.8658 30.0302C28.8528 26.2692 34.3664 23.9434 40.4524 23.9434C52.6177 23.9498 62.4727 33.2145 62.4727 44.6513C62.4727 56.088 52.6177 65.3464 40.4524 65.3464C34.3527 65.3464 28.8392 63.0142 24.8522 59.2532C16.8851 51.7824 10.2811 51.7888 2.30719 59.2852C-1.67976 63.0334 -7.18652 65.3464 -13.2658 65.3464C-25.4243 65.3464 -35.2792 56.0816 -35.2792 44.6513C-35.2792 33.2209 -25.4243 23.9498 -13.2658 23.9498Z"/></g></g></svg>