<svg xmlns="http://www.w3.org/2000/svg" width="48" height="48" viewBox="0 0 48 48"><defs><radialGradient id="paint0_radial_5481_122303" cx="0" cy="0" r="1" gradientTransform="translate(39.1062 29.4114) rotate(90) scale(51.2844 54.4031)" gradientUnits="userSpaceOnUse"><stop offset=".089" stop-color="#EB1000"/><stop offset="1" stop-color="#EB1000" stop-opacity="0"/></radialGradient><linearGradient id="paint1_linear_5481_122303" x1="32.783" x2="12.551" y1="4.919" y2="32.745" gradientUnits="userSpaceOnUse"><stop stop-color="#FF4885"/><stop offset="1" stop-color="#FF4885" stop-opacity="0"/></linearGradient><linearGradient id="paint2_linear_5481_122303" x1="19.489" x2="23.239" y1="-7.359" y2="18.105" gradientUnits="userSpaceOnUse"><stop offset=".156" stop-color="#7A6AFD"/><stop offset="1" stop-color="#7A6AFD" stop-opacity="0"/></linearGradient><linearGradient id="paint3_linear_5481_122303" x1="-29.084" x2="41.411" y1="43.698" y2="28.919" gradientUnits="userSpaceOnUse"><stop stop-color="#30A7FE" stop-opacity="0"/><stop offset=".432" stop-color="#30A7FE" stop-opacity=".995"/><stop offset=".609" stop-color="#30A7FE"/><stop offset="1" stop-color="#30A7FE" stop-opacity="0"/></linearGradient><clipPath id="clip0_5481_122303"><rect width="37.68" height="35.52" x="5.52" y="6.061" fill="#fff" rx="10"/></clipPath></defs><clipPath id="mask0_5481_122303"><path fill="#fff" fill-rule="evenodd" d="M40.7992 23.9992C40.7992 33.2776 33.2776 40.7992 23.9992 40.7992C14.7208 40.7992 7.19922 33.2776 7.19922 23.9992C7.19922 14.7208 14.7208 7.19922 23.9992 7.19922C33.2776 7.19922 40.7992 14.7208 40.7992 23.9992ZM21.7492 19.9492C21.0865 19.9492 20.5492 20.4865 20.5492 21.1492C20.5492 21.812 21.0865 22.3492 21.7492 22.3492H23.2492V29.2492H21.7492C21.0865 29.2492 20.5492 29.7865 20.5492 30.4492C20.5492 31.112 21.0865 31.6492 21.7492 31.6492H27.1492C27.8119 31.6492 28.3492 31.112 28.3492 30.4492C28.3492 29.7865 27.8119 29.2492 27.1492 29.2492H25.6492V21.1492C25.6492 20.4865 25.1119 19.9492 24.4492 19.9492H21.7492ZM24.1492 18.4492C24.9776 18.4492 25.6492 17.7776 25.6492 16.9492C25.6492 16.1208 24.9776 15.4492 24.1492 15.4492C23.3208 15.4492 22.6492 16.1208 22.6492 16.9492C22.6492 17.7776 23.3208 18.4492 24.1492 18.4492Z"/></clipPath><g clip-path="url(#mask0_5481_122303)"><g clip-path="url(#clip0_5481_122303)"><rect width="37.68" height="35.52" x="5.52" y="6.061" fill="#D9F4FD" rx="10"/><ellipse cx="39.106" cy="29.411" fill="url(#paint0_radial_5481_122303)" rx="54.403" ry="51.284"/><path fill="url(#paint1_linear_5481_122303)" d="M2.12818 17.1861C1.52343 4.9088 11.5911 -5.50603 24.615 -6.07611C37.6388 -6.6462 48.687 2.84434 49.2917 15.1216C49.8965 27.3989 39.8288 37.8137 26.8049 38.3838C13.7811 38.9539 2.73293 29.4633 2.12818 17.1861Z"/><path fill="url(#paint2_linear_5481_122303)" d="M15.0389 -18.5178C12.1009 -20.2316 8.3785 -20.2421 5.42957 -18.5449L-24.065 -1.5688C-26.9536 0.0938255 -26.9584 4.01825 -24.0738 5.68716L5.22594 22.6392C8.17045 24.3426 11.8929 24.3405 14.8349 22.6331L44.0742 5.66523C46.9436 3.99987 46.9489 0.0973847 44.083 -1.57425L15.0389 -18.5178Z"/><path fill="url(#paint3_linear_5481_122303)" d="M-13.2658 23.0494C-7.18652 23.0494 -1.67976 25.3688 2.30719 29.1105C10.2811 36.6069 16.8919 36.6133 24.8658 29.1298C28.8528 25.3688 34.3664 23.043 40.4524 23.043C52.6177 23.0494 62.4727 32.3141 62.4727 43.7509C62.4727 55.1876 52.6177 64.446 40.4524 64.446C34.3527 64.446 28.8392 62.1138 24.8522 58.3528C16.8851 50.882 10.2811 50.8884 2.30719 58.3848C-1.67976 62.133 -7.18652 64.446 -13.2658 64.446C-25.4243 64.446 -35.2792 55.1812 -35.2792 43.7509C-35.2792 32.3205 -25.4243 23.0494 -13.2658 23.0494Z"/></g></g></svg>