<svg xmlns="http://www.w3.org/2000/svg" width="96" height="96" viewBox="0 0 96 96"><defs><radialGradient id="paint0_radial_5481_122485" cx="0" cy="0" r="1" gradientTransform="translate(78.2124 60.6236) rotate(90) scale(102.569 108.806)" gradientUnits="userSpaceOnUse"><stop offset=".089" stop-color="#EB1000"/><stop offset="1" stop-color="#EB1000" stop-opacity="0"/></radialGradient><linearGradient id="paint1_linear_5481_122485" x1="65.566" x2="25.102" y1="11.636" y2="67.288" gradientUnits="userSpaceOnUse"><stop stop-color="#FF4885"/><stop offset="1" stop-color="#FF4885" stop-opacity="0"/></linearGradient><linearGradient id="paint2_linear_5481_122485" x1="38.978" x2="46.479" y1="-12.92" y2="38.008" gradientUnits="userSpaceOnUse"><stop offset=".156" stop-color="#7A6AFD"/><stop offset="1" stop-color="#7A6AFD" stop-opacity="0"/></linearGradient><linearGradient id="paint3_linear_5481_122485" x1="-58.165" x2="82.825" y1="89.197" y2="59.638" gradientUnits="userSpaceOnUse"><stop stop-color="#30A7FE" stop-opacity="0"/><stop offset=".432" stop-color="#30A7FE" stop-opacity=".995"/><stop offset=".609" stop-color="#30A7FE"/><stop offset="1" stop-color="#30A7FE" stop-opacity="0"/></linearGradient><clipPath id="clip0_5481_122485"><rect width="75.36" height="71.04" x="11.039" y="13.92" fill="#fff" rx="10"/></clipPath></defs><clipPath id="mask0_5481_122485"><path fill="#fff" fill-rule="evenodd" d="M66.1559 47.9738L66.16 47.9766L76.612 40.8486C79.408 38.9406 79.408 34.8246 76.612 32.9166L50.704 15.2466C49.072 14.1366 46.924 14.1366 45.298 15.2466L19.39 32.9166C16.594 34.8246 16.594 38.9406 19.39 40.8486L29.842 47.9766L29.8467 47.9733L45.2986 58.5125C46.9306 59.6225 49.0786 59.6225 50.7046 58.5125L66.1559 47.9738ZM47.998 64.1526C46.06 64.1526 44.188 63.5766 42.592 62.4846L25.582 50.8806L19.39 55.1046C16.594 57.0126 16.594 61.1286 19.39 63.0366L45.298 80.7066C46.93 81.8166 49.078 81.8166 50.704 80.7066L76.612 63.0366C79.408 61.1286 79.408 57.0126 76.612 55.1046L70.42 50.8806L53.41 62.4846C51.808 63.5766 49.942 64.1526 48.004 64.1526H47.998Z"/></clipPath><g clip-path="url(#mask0_5481_122485)"><g clip-path="url(#clip0_5481_122485)"><rect width="75.36" height="71.04" x="11.039" y="13.92" fill="#D9F4FD" rx="10"/><ellipse cx="78.212" cy="60.624" fill="url(#paint0_radial_5481_122485)" rx="108.806" ry="102.569"/><path fill="url(#paint1_linear_5481_122485)" d="M4.25636 36.171C3.04686 11.6164 23.1822 -9.21323 49.2299 -10.3534C75.2776 -11.4936 97.3739 7.48752 98.5834 32.0421C99.7929 56.5966 79.6576 77.4262 53.6099 78.5664C27.5622 79.7066 5.46586 60.7255 4.25636 36.171Z"/><path fill="url(#paint2_linear_5481_122485)" d="M30.0779 -35.2368C24.2019 -38.6645 16.757 -38.6854 10.8591 -35.291L-48.13 -1.33878C-53.9073 1.98648 -53.9169 9.83532 -48.1475 13.1731L10.4519 47.0772C16.3409 50.4839 23.7858 50.4799 29.6697 47.0651L88.1484 13.1293C93.8873 9.79858 93.8977 1.9936 88.1659 -1.34968L30.0779 -35.2368Z"/><path fill="url(#paint3_linear_5481_122485)" d="M-26.5276 47.8995C-14.3691 47.8995 -3.35561 52.5383 4.61829 60.0219C20.5661 75.0146 33.7878 75.0274 49.7356 60.0603C57.7095 52.5383 68.7366 47.8867 80.9088 47.8867C105.239 47.8995 124.949 66.429 124.949 89.3025C124.949 112.176 105.239 130.693 80.9088 130.693C68.7094 130.693 57.6822 126.028 49.7083 118.506C33.7741 103.565 20.5661 103.578 4.61829 118.57C-3.35561 126.067 -14.3691 130.693 -26.5276 130.693C-50.8446 130.693 -70.5544 112.163 -70.5544 89.3025C-70.5544 66.4418 -50.8446 47.8995 -26.5276 47.8995Z"/></g></g></svg>