<svg xmlns="http://www.w3.org/2000/svg" width="48" height="48" viewBox="0 0 48 48"><defs><radialGradient id="paint0_radial_5481_122274" cx="0" cy="0" r="1" gradientTransform="translate(40.4993 30.4107) rotate(90) scale(56.4273 59.8586)" gradientUnits="userSpaceOnUse"><stop offset=".089" stop-color="#EB1000"/><stop offset="1" stop-color="#EB1000" stop-opacity="0"/></radialGradient><linearGradient id="paint1_linear_5481_122274" x1="33.541" x2="11.28" y1="3.461" y2="34.078" gradientUnits="userSpaceOnUse"><stop stop-color="#FF4885"/><stop offset="1" stop-color="#FF4885" stop-opacity="0"/></linearGradient><linearGradient id="paint2_linear_5481_122274" x1="18.914" x2="23.041" y1="-10.048" y2="17.969" gradientUnits="userSpaceOnUse"><stop offset=".156" stop-color="#7A6AFD"/><stop offset="1" stop-color="#7A6AFD" stop-opacity="0"/></linearGradient><linearGradient id="paint3_linear_5481_122274" x1="-34.531" x2="43.033" y1="46.131" y2="29.869" gradientUnits="userSpaceOnUse"><stop stop-color="#30A7FE" stop-opacity="0"/><stop offset=".432" stop-color="#30A7FE" stop-opacity=".995"/><stop offset=".609" stop-color="#30A7FE"/><stop offset="1" stop-color="#30A7FE" stop-opacity="0"/></linearGradient><clipPath id="clip0_5481_122274"><rect width="41.459" height="39.082" x="3.543" y="4.718" fill="#fff" rx="10"/></clipPath></defs><clipPath id="mask0_5481_122274"><path fill="#fff" fill-rule="evenodd" d="M41.4813 11.7554C41.9744 11.6444 42.4417 11.7067 42.8413 11.8893L11.7455 28.0352C11.6477 28.086 11.5599 28.1483 11.4827 28.2196L4.82534 23.6653C3.2902 22.6151 3.74779 20.2527 5.56566 19.8434L41.4813 11.7554ZM28.447 39.8249L13.6901 29.7297L44.0514 13.9652C44.0662 13.9575 44.0808 13.9496 44.0951 13.9414C44.0793 14.22 44.0058 14.5049 43.8646 14.7832L31.5706 39.0307C30.9872 40.1814 29.5153 40.5557 28.447 39.8249ZM12.298 39.3948V31.7803L19.3456 36.582L14.6865 40.4592C13.7484 41.2398 12.298 40.5935 12.298 39.3948Z"/></clipPath><g clip-path="url(#mask0_5481_122274)"><g clip-path="url(#clip0_5481_122274)"><rect width="41.459" height="39.082" x="3.543" y="4.718" fill="#D9F4FD" rx="10"/><ellipse cx="40.499" cy="30.411" fill="url(#paint0_radial_5481_122274)" rx="59.859" ry="56.427"/><path fill="url(#paint1_linear_5481_122274)" d="M-0.187751 16.9588C-0.853146 3.45035 10.2241 -8.00888 24.554 -8.63613C38.8839 -9.26338 51.04 1.17888 51.7054 14.6873C52.3707 28.1957 41.2935 39.655 26.9636 40.2822C12.6337 40.9095 0.477644 30.4672 -0.187751 16.9588Z"/><path fill="url(#paint2_linear_5481_122274)" d="M14.0177 -22.3257C10.7851 -24.2114 6.68933 -24.2229 3.44468 -22.3555L-29.0076 -3.67702C-32.1859 -1.84766 -32.1912 2.4703 -29.0172 4.30658L3.22063 22.9586C6.46041 24.8327 10.5562 24.8305 13.7931 22.9519L45.9646 4.28244C49.1218 2.45009 49.1275 -1.84374 45.9742 -3.68301L14.0177 -22.3257Z"/><path fill="url(#paint3_linear_5481_122274)" d="M-17.1264 23.4113C-10.4376 23.4113 -4.37859 25.9633 0.0081716 30.0803C8.7817 38.3284 16.0555 38.3355 24.829 30.1015C29.2158 25.9633 35.2822 23.4043 41.9786 23.4043C55.3639 23.4113 66.207 33.6052 66.207 46.1888C66.207 58.7724 55.3639 68.9592 41.9786 68.9592C35.2672 68.9592 29.2008 66.3931 24.814 62.255C16.048 54.0351 8.7817 54.0421 0.0081716 62.2902C-4.37859 66.4143 -10.4376 68.9592 -17.1264 68.9592C-30.5042 68.9592 -41.3474 58.7654 -41.3474 46.1888C-41.3474 33.6122 -30.5042 23.4113 -17.1264 23.4113Z"/></g></g></svg>