<svg xmlns="http://www.w3.org/2000/svg" width="96" height="96" viewBox="0 0 96 96"><defs><radialGradient id="paint0_radial_5481_122446" cx="0" cy="0" r="1" gradientTransform="translate(80.6739 61.1426) rotate(90) scale(120.537)" gradientUnits="userSpaceOnUse"><stop offset=".089" stop-color="#EB1000"/><stop offset="1" stop-color="#EB1000" stop-opacity="0"/></radialGradient><linearGradient id="paint1_linear_5481_122446" x1="66.664" x2="18.316" y1="3.572" y2="66.257" gradientUnits="userSpaceOnUse"><stop stop-color="#FF4885"/><stop offset="1" stop-color="#FF4885" stop-opacity="0"/></linearGradient><linearGradient id="paint2_linear_5481_122446" x1="37.208" x2="46.535" y1="-25.285" y2="34.406" gradientUnits="userSpaceOnUse"><stop offset=".156" stop-color="#7A6AFD"/><stop offset="1" stop-color="#7A6AFD" stop-opacity="0"/></linearGradient><linearGradient id="paint3_linear_5481_122446" x1="-70.407" x2="86.52" y1="94.721" y2="63.707" gradientUnits="userSpaceOnUse"><stop stop-color="#30A7FE" stop-opacity="0"/><stop offset=".432" stop-color="#30A7FE" stop-opacity=".995"/><stop offset=".609" stop-color="#30A7FE"/><stop offset="1" stop-color="#30A7FE" stop-opacity="0"/></linearGradient><clipPath id="clip0_5481_122446"><rect width="83.485" height="83.485" x="6.258" y="6.258" fill="#fff" rx="10"/></clipPath></defs><clipPath id="mask0_5481_122446"><path fill="#fff" d="M69.9137 41.5243C69.9162 41.3982 69.9229 41.2732 69.9229 41.1464C69.9229 31.2765 62.2568 23.2754 52.8003 23.2754C45.1714 23.2754 38.7107 28.484 36.4972 35.6788C35.0284 35.0457 33.4208 34.6919 31.733 34.6919C24.8317 34.6919 19.2372 40.531 19.2372 47.7339C19.2372 48.7486 19.3592 49.7316 19.5692 50.6797C15.0107 51.9829 11.6562 56.326 11.6562 61.4973C11.6562 67.6348 16.3767 72.6141 22.234 72.7151V72.7246H68.9728V72.7224C69.0008 72.7225 69.0283 72.7246 69.0564 72.7246C77.3185 72.7246 84.0162 65.7341 84.0162 57.1108C84.0162 48.7881 77.7766 41.9883 69.9137 41.5243Z"/></clipPath><g clip-path="url(#mask0_5481_122446)"><g clip-path="url(#clip0_5481_122446)"><rect width="83.485" height="83.485" x="6.258" y="6.258" fill="#D9F4FD" rx="10"/><circle cx="80.674" cy="61.143" r="120.537" fill="url(#paint0_radial_5481_122446)"/><path fill="url(#paint1_linear_5481_122446)" d="M-1.25517 32.4055C-2.59508 3.54941 19.7112 -20.9293 48.5672 -22.2692C77.4233 -23.6091 101.902 -1.30281 103.242 27.5532C104.582 56.4093 82.2755 80.888 53.4195 82.2279C24.5634 83.5678 0.0847316 61.2615 -1.25517 32.4055Z"/><path fill="url(#paint2_linear_5481_122446)" d="M27.3488 -51.5114C20.8393 -55.5395 12.5917 -55.5642 6.05797 -51.5751L-59.2911 -11.675C-65.6913 -7.76725 -65.7019 1.45657 -59.3105 5.37913L5.6068 45.2226C12.1307 49.2261 20.3783 49.2214 26.8967 45.2084L91.6802 5.32757C98.0378 1.41339 98.0494 -7.75889 91.6996 -11.6878L27.3488 -51.5114Z"/><path fill="url(#paint3_linear_5481_122446)" d="M-35.3592 46.1889C-21.8898 46.1889 -9.68887 51.6403 -0.855262 60.4348C16.812 78.054 31.4591 78.0691 49.1264 60.48C57.96 51.6403 70.176 46.1738 83.6605 46.1738C110.614 46.1889 132.449 67.9644 132.449 94.845C132.449 121.726 110.614 143.486 83.6605 143.486C70.1458 143.486 57.9298 138.004 49.0962 129.165C31.444 111.606 16.812 111.621 -0.855262 129.24C-9.68887 138.05 -21.8898 143.486 -35.3592 143.486C-62.2979 143.486 -84.1328 121.711 -84.1328 94.845C-84.1328 67.9795 -62.2979 46.1889 -35.3592 46.1889Z"/></g></g></svg>