<svg xmlns="http://www.w3.org/2000/svg" width="48" height="48" viewBox="0 0 48 48"><defs><radialGradient id="paint0_radial_5481_122383" cx="0" cy="0" r="1" gradientTransform="translate(42.7877 31.5552) rotate(90) scale(69.3033)" gradientUnits="userSpaceOnUse"><stop offset=".089" stop-color="#EB1000"/><stop offset="1" stop-color="#EB1000" stop-opacity="0"/></radialGradient><linearGradient id="paint1_linear_5481_122383" x1="34.731" x2="6.933" y1="-1.543" y2="34.498" gradientUnits="userSpaceOnUse"><stop stop-color="#FF4885"/><stop offset="1" stop-color="#FF4885" stop-opacity="0"/></linearGradient><linearGradient id="paint2_linear_5481_122383" x1="17.793" x2="23.155" y1="-18.135" y2="16.184" gradientUnits="userSpaceOnUse"><stop offset=".156" stop-color="#7A6AFD"/><stop offset="1" stop-color="#7A6AFD" stop-opacity="0"/></linearGradient><linearGradient id="paint3_linear_5481_122383" x1="-44.078" x2="46.147" y1="50.862" y2="33.03" gradientUnits="userSpaceOnUse"><stop stop-color="#30A7FE" stop-opacity="0"/><stop offset=".432" stop-color="#30A7FE" stop-opacity=".995"/><stop offset=".609" stop-color="#30A7FE"/><stop offset="1" stop-color="#30A7FE" stop-opacity="0"/></linearGradient><clipPath id="clip0_5481_122383"><rect width="48" height="48" fill="#fff" rx="10"/></clipPath></defs><clipPath id="mask0_5481_122383"><path fill="#fff" fill-rule="evenodd" d="M9.31009 15.3162L23.223 9.63289C23.7077 9.43487 24.2508 9.43487 24.7356 9.63289L38.6485 15.3162C40.3067 15.9936 40.3067 18.3418 38.6485 19.0192L37.0362 19.6778L37.0362 26.3467C37.0362 27.2215 36.8023 28.4767 35.9253 29.7829C35.046 31.0925 33.5687 32.3817 31.1953 33.3988C29.2783 34.2204 27.0728 34.5345 25.1536 34.6059C23.2303 34.6774 21.489 34.5084 20.4481 34.2941C19.772 34.1549 19.3367 33.4939 19.4759 32.8177C19.6151 32.1415 20.2761 31.7063 20.9523 31.8455C21.7698 32.0138 23.3081 32.1728 25.0607 32.1076C26.8173 32.0423 28.6839 31.7552 30.2105 31.101C32.2184 30.2404 33.2827 29.2339 33.8497 28.3893C34.4191 27.5413 34.5362 26.7837 34.5362 26.3467V20.699L24.7356 24.7025C24.2508 24.9005 23.7077 24.9005 23.223 24.7025L16.9252 22.1299C17.1533 21.8259 17.4456 21.5675 17.7893 21.3766L24.5867 17.6002C25.1902 17.265 25.4076 16.504 25.0723 15.9005C24.7371 15.297 23.9761 15.0796 23.3726 15.4148L16.5752 19.1912C15.7243 19.6639 15.0385 20.3531 14.5709 21.1682L9.31009 19.0192C7.65184 18.3418 7.65185 15.9936 9.31009 15.3162ZM13.8748 32.5525V23.7805C13.8748 22.8472 14.1225 21.9498 14.5709 21.1682L16.9252 22.1299C16.5739 22.5982 16.3748 23.1749 16.3748 23.7805V32.267C17.1404 33.6451 17.8973 35.3539 18.0509 36.8134C18.0676 36.9294 18.0762 37.0477 18.0762 37.168V37.1684V37.1686C18.0762 38.6176 16.8282 39.7922 15.2886 39.7922C13.749 39.7922 12.501 38.6176 12.501 37.1686V37.1683C12.501 37.0711 12.5066 36.9751 12.5176 36.8806C12.6312 35.5053 13.2334 33.8982 13.8748 32.5525Z"/></clipPath><g clip-path="url(#mask0_5481_122383)"><g clip-path="url(#clip0_5481_122383)"><rect width="48" height="48" fill="#D9F4FD" rx="10"/><circle cx="42.788" cy="31.555" r="69.303" fill="url(#paint0_radial_5481_122383)"/><path fill="url(#paint1_linear_5481_122383)" d="M-4.31959 15.0345C-5.08998 -1.55641 7.73508 -15.6305 24.326 -16.4009C40.9169 -17.1713 54.991 -4.34621 55.7613 12.2447C56.5317 28.8356 43.7067 42.9097 27.1158 43.6801C10.5249 44.4504 -3.54921 31.6254 -4.31959 15.0345Z"/><path fill="url(#paint2_linear_5481_122383)" d="M12.1243 -33.214C8.38167 -35.53 3.6397 -35.5442 -0.116893 -33.2506L-37.6896 -10.3099C-41.3694 -8.06314 -41.3755 -2.75987 -37.7007 -0.504581L-0.376298 22.4036C3.37467 24.7054 8.11665 24.7027 11.8644 22.3954L49.1119 -0.534222C52.7672 -2.7847 52.7739 -8.05833 49.1231 -10.3173L12.1243 -33.214Z"/><path fill="url(#paint3_linear_5481_122383)" d="M-23.9274 22.9579C-16.1831 22.9579 -9.16812 26.0922 -4.0892 31.1486C6.06863 41.2789 14.4901 41.2875 24.6479 31.1746C29.7268 26.0922 36.7505 22.9492 44.5034 22.9492C60.0006 22.9579 72.5547 35.4778 72.5547 50.9329C72.5547 66.388 60.0006 78.8992 44.5034 78.8992C36.7331 78.8992 29.7095 75.7476 24.6306 70.6652C14.4814 60.5696 6.06863 60.5782 -4.0892 70.7085C-9.16812 75.7736 -16.1831 78.8992 -23.9274 78.8992C-39.4159 78.8992 -51.9699 66.3793 -51.9699 50.9329C-51.9699 35.4865 -39.4159 22.9579 -23.9274 22.9579Z"/></g></g></svg>