<svg xmlns="http://www.w3.org/2000/svg" width="160" height="160" viewBox="0 0 160 160"><defs><radialGradient id="paint0_radial_5481_122129" cx="0" cy="0" r="1" gradientTransform="translate(134.458 101.904) rotate(90) scale(200.895 200.895)" gradientUnits="userSpaceOnUse"><stop offset=".089" stop-color="#EB1000"/><stop offset="1" stop-color="#EB1000" stop-opacity="0"/></radialGradient><linearGradient id="paint1_linear_5481_122129" x1="111.107" x2="30.526" y1="5.955" y2="110.43" gradientUnits="userSpaceOnUse"><stop stop-color="#FF4885"/><stop offset="1" stop-color="#FF4885" stop-opacity="0"/></linearGradient><linearGradient id="paint2_linear_5481_122129" x1="62.011" x2="77.555" y1="-42.141" y2="57.344" gradientUnits="userSpaceOnUse"><stop offset=".156" stop-color="#7A6AFD"/><stop offset="1" stop-color="#7A6AFD" stop-opacity="0"/></linearGradient><linearGradient id="paint3_linear_5481_122129" x1="-117.348" x2="144.197" y1="157.869" y2="106.178" gradientUnits="userSpaceOnUse"><stop stop-color="#30A7FE" stop-opacity="0"/><stop offset=".432" stop-color="#30A7FE" stop-opacity=".995"/><stop offset=".609" stop-color="#30A7FE"/><stop offset="1" stop-color="#30A7FE" stop-opacity="0"/></linearGradient><clipPath id="clip0_5481_122129"><rect width="139.142" height="139.142" x="10.43" y="10.43" fill="#fff" rx="10"/></clipPath></defs><clipPath id="mask0_5481_122129"><path fill="#fff" d="M120.689 64.408L87.5535 31.2725C85.2917 29.0108 82.2242 27.7402 79.0257 27.7402H47.8412C41.1807 27.7402 35.7812 33.1397 35.7812 39.8002V120.2C35.7812 126.861 41.1807 132.26 47.8412 132.26H112.161C118.822 132.26 124.221 126.861 124.221 120.2V72.9356C124.221 69.7371 122.951 66.6696 120.689 64.408ZM95.0721 93.3146L71.1255 107.102C68.4437 108.646 65.096 106.708 65.0997 103.613L65.1328 75.9814C65.1365 72.8868 68.4889 70.9567 71.1668 72.5072L95.0804 86.3518C97.7585 87.9023 97.7539 91.7705 95.0721 93.3146Z"/></clipPath><g clip-path="url(#mask0_5481_122129)"><g clip-path="url(#clip0_5481_122129)"><rect width="139.142" height="139.142" x="10.43" y="10.43" fill="#D9F4FD" rx="10"/><ellipse cx="134.458" cy="101.904" fill="url(#paint0_radial_5481_122129)" rx="200.895" ry="200.895"/><path fill="url(#paint1_linear_5481_122129)" d="M-2.09191 54.0101C-4.32508 5.91667 32.852 -34.8811 80.9454 -37.1143C129.039 -39.3474 169.837 -2.17036 172.07 45.9231C174.303 94.0165 137.126 134.814 89.0324 137.047C40.939 139.281 0.141263 102.104 -2.09191 54.0101Z"/><path fill="url(#paint2_linear_5481_122129)" d="M45.5787 -85.8521C34.7295 -92.5656 20.9836 -92.6067 10.094 -85.9582L-98.8211 -19.4581C-109.488 -12.9451 -109.506 2.42794 -98.8535 8.96553L9.34205 75.3714C20.2153 82.0438 33.9613 82.0359 44.8251 75.3476L152.798 8.87961C163.394 2.35597 163.413 -12.9312 152.83 -19.4794L45.5787 -85.8521Z"/><path fill="url(#paint3_linear_5481_122129)" d="M-58.9346 76.9821C-36.4856 76.9821 -16.1507 86.0678 -1.42803 100.725C28.0173 130.091 52.4293 130.116 81.8747 100.801C96.5974 86.0678 116.957 76.957 139.432 76.957C184.355 76.9821 220.746 113.275 220.746 158.076C220.746 202.877 184.355 239.144 139.432 239.144C116.907 239.144 96.547 230.008 81.8243 215.275C52.4041 186.01 28.0173 186.035 -1.42803 215.401C-16.1507 230.083 -36.4856 239.144 -58.9346 239.144C-103.832 239.144 -140.224 202.851 -140.224 158.076C-140.224 113.3 -103.832 76.9821 -58.9346 76.9821Z"/></g></g></svg>