<svg xmlns="http://www.w3.org/2000/svg" width="48" height="48" viewBox="0 0 48 48"><defs><radialGradient id="paint0_radial_5481_122355" cx="0" cy="0" r="1" gradientTransform="translate(42.7877 31.5552) rotate(90) scale(69.3033)" gradientUnits="userSpaceOnUse"><stop offset=".089" stop-color="#EB1000"/><stop offset="1" stop-color="#EB1000" stop-opacity="0"/></radialGradient><linearGradient id="paint1_linear_5481_122355" x1="34.731" x2="6.933" y1="-1.543" y2="34.498" gradientUnits="userSpaceOnUse"><stop stop-color="#FF4885"/><stop offset="1" stop-color="#FF4885" stop-opacity="0"/></linearGradient><linearGradient id="paint2_linear_5481_122355" x1="17.793" x2="23.155" y1="-18.135" y2="16.184" gradientUnits="userSpaceOnUse"><stop offset=".156" stop-color="#7A6AFD"/><stop offset="1" stop-color="#7A6AFD" stop-opacity="0"/></linearGradient><linearGradient id="paint3_linear_5481_122355" x1="-44.078" x2="46.147" y1="50.862" y2="33.03" gradientUnits="userSpaceOnUse"><stop stop-color="#30A7FE" stop-opacity="0"/><stop offset=".432" stop-color="#30A7FE" stop-opacity=".995"/><stop offset=".609" stop-color="#30A7FE"/><stop offset="1" stop-color="#30A7FE" stop-opacity="0"/></linearGradient><clipPath id="clip0_5481_122355"><rect width="48" height="48" fill="#fff" rx="10"/></clipPath></defs><clipPath id="mask0_5481_122355"><path fill="#292929" fill-rule="evenodd" d="M12.1016 9.44727C10.6518 9.44727 9.47656 10.6225 9.47656 12.0723V16.8313C9.47656 18.281 10.6518 19.4563 12.1016 19.4563C13.5513 19.4563 14.7266 18.281 14.7266 16.8313V14.6973H21.3746V33.2425H19.2398C17.7901 33.2425 16.6148 34.4177 16.6148 35.8675C16.6148 37.3172 17.7901 38.4925 19.2398 38.4925H28.7579C30.2076 38.4925 31.3829 37.3172 31.3829 35.8675C31.3829 34.4177 30.2076 33.2425 28.7579 33.2425H26.6246V14.6973H33.2718V16.8313C33.2718 18.281 34.447 19.4563 35.8968 19.4563C37.3465 19.4563 38.5218 18.281 38.5218 16.8313V12.0723C38.5218 10.6225 37.3465 9.44727 35.8968 9.44727C35.8967 9.44727 35.8967 9.44727 35.8967 9.44727H23.9996H12.1016Z"/></clipPath><g clip-path="url(#mask0_5481_122355)"><g clip-path="url(#clip0_5481_122355)"><rect width="48" height="48" fill="#D9F4FD" rx="10"/><circle cx="42.788" cy="31.555" r="69.303" fill="url(#paint0_radial_5481_122355)"/><path fill="url(#paint1_linear_5481_122355)" d="M-4.31959 15.0345C-5.08998 -1.55641 7.73508 -15.6305 24.326 -16.4009C40.9169 -17.1713 54.991 -4.34621 55.7613 12.2447C56.5317 28.8356 43.7067 42.9097 27.1158 43.6801C10.5249 44.4504 -3.54921 31.6254 -4.31959 15.0345Z"/><path fill="url(#paint2_linear_5481_122355)" d="M12.1243 -33.214C8.38167 -35.53 3.6397 -35.5442 -0.116893 -33.2506L-37.6896 -10.3099C-41.3694 -8.06314 -41.3755 -2.75987 -37.7007 -0.504581L-0.376298 22.4036C3.37467 24.7054 8.11665 24.7027 11.8644 22.3954L49.1119 -0.534222C52.7672 -2.7847 52.7739 -8.05833 49.1231 -10.3173L12.1243 -33.214Z"/><path fill="url(#paint3_linear_5481_122355)" d="M-23.9274 22.9579C-16.1831 22.9579 -9.16812 26.0922 -4.0892 31.1486C6.06863 41.2789 14.4901 41.2875 24.6479 31.1746C29.7268 26.0922 36.7505 22.9492 44.5034 22.9492C60.0006 22.9579 72.5547 35.4778 72.5547 50.9329C72.5547 66.388 60.0006 78.8992 44.5034 78.8992C36.7331 78.8992 29.7095 75.7476 24.6306 70.6652C14.4814 60.5696 6.06863 60.5782 -4.0892 70.7085C-9.16812 75.7736 -16.1831 78.8992 -23.9274 78.8992C-39.4159 78.8992 -51.9699 66.3793 -51.9699 50.9329C-51.9699 35.4865 -39.4159 22.9579 -23.9274 22.9579Z"/></g></g></svg>