<svg style="max-height:245.5px;background:var(--anatomy-gray-300);padding:12px;margin-bottom:16px;width:calc(100% - 24px);border-radius:var(--anatomy-radius)" viewBox="0 0 319 245.5"><defs><filter id="Path_3120" width="319" height="194" x="0" y="51.5" filterUnits="userSpaceOnUse"><feOffset dy="3" input="SourceAlpha"/><feGaussianBlur result="blur" stdDeviation="3"/><feFlood flood-opacity=".149"/><feComposite in2="blur" operator="in"/><feComposite in="SourceGraphic"/></filter></defs><g id="Group_3957" data-name="Group 3957" transform="translate(-18.5 -40)"><g id="Group_3941" data-name="Group 3941"><g filter="url(#Path_3120)" transform="translate(0 68) matrix(1, 0, 0, 1, 18.5, -28)"><path id="Path_3120-2" fill="var(--anatomy-gray-50)" stroke="var(--anatomy-gray-400)" stroke-width="1" d="M4,0H296a4,4,0,0,1,4,4V171a4,4,0,0,1-4,4H4a4,4,0,0,1-4-4V4A4,4,0,0,1,4,0Z" data-name="Path 3120" transform="translate(9.5 58)"/></g></g><g id="Group_3942" data-name="Group 3942" transform="translate(-168 401)"><text id="Underlay" fill="var(--anatomy-gray-900)" font-family="var(--anatomy-font)" font-size="13" font-style="italic" transform="translate(402 -348)"><tspan x="-23.185" y="0">Underlay</tspan></text><path id="Union_12" fill="var(--anatomy-gray-900)" d="M-682.5-357a2.5,2.5,0,0,1,2-2.449V-381h1v21.55a2.5,2.5,0,0,1,2,2.449,2.5,2.5,0,0,1-2.5,2.5A2.5,2.5,0,0,1-682.5-357Z" data-name="Union 12" transform="translate(1081.5 38)"/></g><g id="Group_3943" data-name="Group 3943" transform="translate(-287 401)"><rect id="Rectangle_3659" width="20" height="55" fill="red" data-name="Rectangle 3659" opacity="0" transform="translate(392 -343)"/><text id="Modal" fill="var(--anatomy-gray-900)" font-family="var(--anatomy-font)" font-size="13" font-style="italic" transform="translate(402 -348)"><tspan x="-16.471" y="0">Modal</tspan></text><path id="Union_13" fill="var(--anatomy-gray-900)" d="M-770-326.5a2.5,2.5,0,0,1,2-2.45V-381h1v52.049a2.5,2.5,0,0,1,2,2.45,2.5,2.5,0,0,1-2.5,2.5A2.5,2.5,0,0,1-770-326.5Z" data-name="Union 13" transform="translate(1169.5 38)"/></g></g></svg>