<svg xmlns="http://www.w3.org/2000/svg" xmlns:xlink="http://www.w3.org/1999/xlink" style="max-height:140px;background:var(--anatomy-gray-100);padding:32px;margin-bottom:16px;width:calc(100% - 64px);border-radius:var(--anatomy-radius)" viewBox="0 0 516 137"><title>ListView anatomy diagram</title><desc>Shows a list view with labels pointing to its parts, including a parent list view item, a child list view item, and a selected listview item.</desc><defs><clipPath id="clip-path"><rect width="11" height="17" fill="none"/></clipPath><clipPath id="clip-listview_anatomy"><rect width="680" height="552"/></clipPath></defs><g id="listview_anatomy" clip-path="url(#clip-listview_anatomy)" transform="translate(-55 -55)"><rect id="Rectangle_142147" width="436" height="58" fill="var(--anatomy-gray-50)" data-name="Rectangle 142147" transform="translate(123 96)"/><g id="Rectangle_142150" fill="var(--anatomy-gray-100)" stroke="var(--anatomy-gray-500)" stroke-dasharray="3" stroke-width="1" data-name="Rectangle 142150" transform="translate(177.5 104)"><rect width="42" height="42" stroke="none"/><rect width="41" height="41" x=".5" y=".5" fill="none"/></g><g id="Rectangle_142152" fill="var(--anatomy-gray-100)" stroke="var(--anatomy-gray-500)" stroke-dasharray="3" stroke-width="1" data-name="Rectangle 142152" transform="translate(416 104)"><rect width="101.504" height="42" stroke="none"/><rect width="100.504" height="41" x=".5" y=".5" fill="none"/></g><text id="Actions_optional_" fill="var(--anatomy-gray-900)" data-name="Actions (optional)" font-family="var(--anatomy-font)" font-size="12" font-style="italic" transform="translate(467 122)"><tspan x="-17.04" y="0">Actions</tspan><tspan x="-23.25" y="15">(optional)</tspan></text><text id="Justify_end_" fill="var(--anatomy-gray-900)" data-name="Justify end →" font-family="var(--anatomy-font)" font-size="12" font-style="italic" transform="translate(488 190)"><tspan x="-29.82" y="0">Justify end →</tspan></text><text id="_Justify_start" fill="var(--anatomy-gray-900)" data-name="← Justify start" font-family="var(--anatomy-font)" font-size="12" font-style="italic" transform="translate(266 190)"><tspan x="-31.716" y="0">← Justify start</tspan></text><text id="Context_area_optional_" fill="var(--anatomy-gray-900)" data-name="Context area (optional)" font-family="var(--anatomy-font)" font-size="12" font-style="italic" transform="translate(187 66)"><tspan x="0" y="0">Context area</tspan><tspan x="0" y="15">(optional)</tspan></text><text id="Navigation_icon_optional_" fill="var(--anatomy-gray-900)" data-name="Navigation icon (optional)" font-family="var(--anatomy-font)" font-size="12" font-style="italic" transform="translate(533.5 66)"><tspan x="-36.84" y="0">Navigation icon</tspan><tspan x="-23.25" y="15">(optional)</tspan></text><text id="Checkbox_optional_" fill="var(--anatomy-gray-900)" data-name="Checkbox (optional)" font-family="var(--anatomy-font)" font-size="12" font-style="italic" transform="translate(171 66)"><tspan x="-44.88" y="0">Checkbox</tspan><tspan x="-46.5" y="15">(optional)</tspan></text><line id="Line_8" y2="24" fill="none" stroke="var(--anatomy-gray-900)" stroke-width="1" data-name="Line 8" transform="translate(199 86.5)"/><line id="Line_10" y2="24" fill="none" stroke="var(--anatomy-gray-900)" stroke-width="1" data-name="Line 10" transform="translate(534 86.5)"/><line id="Line_9" y2="24" fill="none" stroke="var(--anatomy-gray-900)" stroke-width="1" data-name="Line 9" transform="translate(159.5 86.5)"/><g id="Group_156653" data-name="Group 156653" transform="translate(976.504 423.062) rotate(180)"><g id="Group_2" data-name="Group 2" transform="translate(418 251.584)"><path id="Path_453" fill="none" stroke="var(--anatomy-gray-700)" stroke-width="1" d="M418,257.539v-5.955H560.5v5.955" data-name="Path 453" transform="translate(-418 -251.584)"/></g></g><g id="Group_156654" data-name="Group 156654" transform="translate(826.5 423.062) rotate(180)"><g id="Group_2-2" data-name="Group 2" transform="translate(418 251.584)"><path id="Path_453-2" fill="none" stroke="var(--anatomy-gray-700)" stroke-width="1" d="M418,257.539v-5.955H702.5v5.955" data-name="Path 453" transform="translate(-418 -251.584)"/></g></g><text id="Drag_icon_optional_" fill="var(--anatomy-gray-900)" data-name="Drag icon (optional)" font-family="var(--anatomy-font)" font-size="12" font-style="italic" transform="translate(77 122)"><tspan x="-22.746" y="0">Drag icon</tspan><tspan x="-23.25" y="15">(optional)</tspan></text><path id="Path_35565" fill="none" stroke="var(--anatomy-gray-600)" stroke-width="1" d="M439,263.248v-20" data-name="Path 35565" transform="translate(-137.814 563.664) rotate(-90)"/><g id="Repeat_Grid_46" clip-path="url(#clip-path)" data-name="Repeat Grid 46" transform="translate(130 117)"><g transform="translate(-287 -281)"><rect id="Rectangle_11" width="4" height="4" fill="var(--anatomy-gray-700)" data-name="Rectangle 11" rx="1" transform="translate(287 281)"/></g><g transform="translate(-281 -281)"><rect id="Rectangle_11-2" width="4" height="4" fill="var(--anatomy-gray-700)" data-name="Rectangle 11" rx="1" transform="translate(287 281)"/></g><g transform="translate(-287 -275)"><rect id="Rectangle_11-3" width="4" height="4" fill="var(--anatomy-gray-700)" data-name="Rectangle 11" rx="1" transform="translate(287 281)"/></g><g transform="translate(-281 -275)"><rect id="Rectangle_11-4" width="4" height="4" fill="var(--anatomy-gray-700)" data-name="Rectangle 11" rx="1" transform="translate(287 281)"/></g><g transform="translate(-287 -269)"><rect id="Rectangle_11-5" width="4" height="4" fill="var(--anatomy-gray-700)" data-name="Rectangle 11" rx="1" transform="translate(287 281)"/></g><g transform="translate(-281 -269)"><rect id="Rectangle_11-6" width="4" height="4" fill="var(--anatomy-gray-700)" data-name="Rectangle 11" rx="1" transform="translate(287 281)"/></g></g><g id="Rectangle_142153" fill="var(--anatomy-gray-100)" stroke="var(--anatomy-gray-500)" stroke-dasharray="3" stroke-width="1" data-name="Rectangle 142153" transform="translate(227.5 127)"><rect width="181" height="19" stroke="none"/><rect width="180" height="18" x=".5" y=".5" fill="none"/></g><g id="Rectangle_142154" fill="var(--anatomy-gray-100)" stroke="var(--anatomy-gray-500)" stroke-dasharray="3" stroke-width="1" data-name="Rectangle 142154" transform="translate(227.5 104)"><rect width="181" height="19" stroke="none"/><rect width="180" height="18" x=".5" y=".5" fill="none"/></g><text id="Label_area" fill="var(--anatomy-gray-900)" data-name="Label area" font-family="var(--anatomy-font)" font-size="12" font-style="italic" transform="translate(318.5 118)"><tspan x="-24.678" y="0">Label area</tspan></text><text id="Description_area_optional_" fill="var(--anatomy-gray-900)" data-name="Description area (optional)" font-family="var(--anatomy-font)" font-size="12" font-style="italic" transform="translate(318.5 141)"><tspan x="-62.94" y="0">Description area (optional)</tspan></text><g id="Checkbox" transform="translate(149 101)"><g id="Placement_Area" fill="red" stroke="var(--anatomy-gray-900)" stroke-opacity="0" stroke-width="1" data-name="Placement Area" opacity="0"><rect width="21" height="48" stroke="none"/><rect width="20" height="47" x=".5" y=".5" fill="none"/></g><g id="Box" fill="var(--anatomy-gray-75)" stroke="var(--anatomy-gray-600)" stroke-width="3" transform="translate(0 13.5)"><rect width="21" height="21" stroke="none" rx="2"/><rect width="18" height="18" x="1.5" y="1.5" fill="none" rx=".5"/></g></g><g id="Group_156660" data-name="Group 156660" transform="translate(515 101)"><rect id="Rectangle_139996" width="15" height="48" fill="red" data-name="Rectangle 139996" opacity="0" transform="translate(11)"/><g id="ChevronSize100" transform="translate(11 16.5)"><rect id="Frame" width="15" height="15" fill="var(--anatomy-gray-800)" fill-opacity="0"/><path id="Path_35561" fill="var(--anatomy-gray-700)" d="M3.437,14.9a1.312,1.312,0,0,1-.922-2.246L7.757,7.475,2.515,2.3A1.312,1.312,0,1,1,4.36.428l6.188,6.113a1.314,1.314,0,0,1,0,1.868L4.36,14.522A1.307,1.307,0,0,1,3.437,14.9Z" data-name="Path 35561" transform="translate(1.063 0.025)"/></g></g></g></svg>