<svg xmlns="http://www.w3.org/2000/svg" width="96" height="96" viewBox="0 0 96 96"><defs><radialGradient id="paint0_radial_5481_99329" cx="0" cy="0" r="1" gradientTransform="translate(53.4611 9.49533) rotate(90) scale(36.3205)" gradientUnits="userSpaceOnUse"><stop offset=".167" stop-color="#FF709F"/><stop offset="1" stop-color="#FF709F" stop-opacity="0"/></radialGradient><linearGradient id="paint1_linear_5481_99329" x1="-14.724" x2="121.006" y1="80.862" y2="-1.715" gradientUnits="userSpaceOnUse"><stop offset=".06" stop-color="#8480FE"/><stop offset=".6" stop-color="#8480FE" stop-opacity="0"/></linearGradient><linearGradient id="paint2_linear_5481_99329" x1="94.203" x2="35.974" y1="21.634" y2="84.246" gradientUnits="userSpaceOnUse"><stop stop-color="#EB1000"/><stop offset="1" stop-color="#EB1000" stop-opacity="0"/></linearGradient><linearGradient id="paint3_linear_5481_99329" x1="23.438" x2="126.661" y1="92.887" y2="35.063" gradientUnits="userSpaceOnUse"><stop stop-color="#FC7D00" stop-opacity="0"/><stop offset=".432" stop-color="#FC7D00"/><stop offset=".609" stop-color="#FC7D00"/><stop offset="1" stop-color="#FC7D00" stop-opacity="0"/></linearGradient><radialGradient id="paint4_radial_5481_99329" cx="0" cy="0" r="1" gradientTransform="translate(84.8752 21.3391) rotate(90) scale(36.3205 36.3205)" gradientUnits="userSpaceOnUse"><stop offset=".167" stop-color="#EB1000"/><stop offset="1" stop-color="#EB1000" stop-opacity="0"/></radialGradient><clipPath id="clip0_5481_99329"><rect width="83.485" height="83.485" x="6.258" y="6.257" fill="#fff" rx="2.077"/></clipPath></defs><clipPath id="mask0_5481_99329"><path fill="#fff" d="M46.42 16.3097C35.7659 17.0622 27.1375 25.6603 26.3502 36.3119C25.7655 44.2219 29.4245 51.3137 35.2835 55.5538C37.1883 56.9323 38.3491 59.1114 38.3491 61.4626V67.0567H57.6451V61.4661C57.6451 59.1734 58.7063 56.9816 60.574 55.6519C66.0997 51.7176 69.7051 45.2621 69.7051 37.9619C69.7051 25.4513 59.122 15.4126 46.42 16.3097ZM60.0571 37.8112C58.8081 37.8112 57.7958 36.7989 57.7958 35.5499C57.7958 31.4767 54.4823 28.1632 50.4091 28.1632C49.1601 28.1632 48.1478 27.1509 48.1478 25.9019C48.1478 24.6529 49.1601 23.6407 50.4091 23.6407C56.9761 23.6407 62.3183 28.9832 62.3183 35.5499C62.3183 36.7989 61.3061 37.8112 60.0571 37.8112Z"/><path fill="#fff" d="M38.3516 75.3478C38.3516 77.346 39.9714 78.9658 41.9696 78.9658H54.0296C56.0277 78.9658 57.6476 77.346 57.6476 75.3478V71.5791H38.3516V75.3478Z"/></clipPath><g clip-path="url(#mask0_5481_99329)"><g clip-path="url(#clip0_5481_99329)"><rect width="83.485" height="83.485" x="6.258" y="6.257" fill="#FFECCF" rx="2.077"/><rect width="83.485" height="83.485" fill="#FFECCF" transform="translate(6.25781 6.25684)"/><circle cx="53.461" cy="9.495" r="36.321" fill="url(#paint0_radial_5481_99329)" transform="rotate(-0.0800682 53.4611 9.49533)"/><path fill="url(#paint1_linear_5481_99329)" d="M38.121 -8.49075C31.7094 -12.4582 23.586 -12.4825 17.1506 -8.55347L-47.215 30.7461C-53.5188 34.5951 -53.5293 43.6801 -47.2341 47.5436L16.7062 86.7875C23.1319 90.7307 31.2554 90.726 37.6756 86.7734L101.484 47.4928C107.746 43.6375 107.758 34.6033 101.503 30.7335L38.121 -8.49075Z"/><path fill="url(#paint2_linear_5481_99329)" d="M18.2907 45.8933C19.7176 14.7258 46.1405 -9.38359 77.3079 -7.95667C108.475 -6.52976 132.585 19.8932 131.158 51.0606C129.731 82.228 103.308 106.337 72.1406 104.91C40.9732 103.484 16.8638 77.0607 18.2907 45.8933Z"/><path fill="url(#paint3_linear_5481_99329)" d="M-27.5665 66.4438C-15.1774 61.1585 -1.81591 61.3851 9.76014 66.008C32.9241 75.2816 46.4024 69.548 55.7508 46.4371C60.4073 34.8401 69.4986 25.0186 81.9016 19.7274C106.7 9.16472 135.328 20.6259 145.876 45.3506C156.423 70.0753 144.878 98.6584 120.086 109.235C107.656 114.538 94.2683 114.29 82.6745 109.625C59.5481 100.401 46.0955 106.156 36.7589 129.295C32.0906 140.864 23.0013 150.652 10.6122 155.937C-14.1659 166.508 -42.7942 155.047 -53.336 130.336C-63.8779 105.625 -52.3447 77.0143 -27.5665 66.4438Z"/><ellipse cx="84.875" cy="21.339" fill="url(#paint4_radial_5481_99329)" rx="36.321" ry="36.321" transform="rotate(-0.0800682 84.8752 21.3391)"/></g></g></svg>