<svg xmlns="http://www.w3.org/2000/svg" width="96" height="96" viewBox="0 0 96 96"><defs><radialGradient id="paint0_radial_5481_99491" cx="0" cy="0" r="1" gradientTransform="translate(54.2806 3.72345) rotate(90) scale(41.7653)" gradientUnits="userSpaceOnUse"><stop offset=".167" stop-color="#FF709F"/><stop offset="1" stop-color="#FF709F" stop-opacity="0"/></radialGradient><linearGradient id="paint1_linear_5481_99491" x1="-24.124" x2="131.953" y1="85.79" y2="-9.167" gradientUnits="userSpaceOnUse"><stop offset=".06" stop-color="#8480FE"/><stop offset=".6" stop-color="#8480FE" stop-opacity="0"/></linearGradient><linearGradient id="paint2_linear_5481_99491" x1="101.128" x2="34.171" y1="17.683" y2="89.68" gradientUnits="userSpaceOnUse"><stop stop-color="#EB1000"/><stop offset="1" stop-color="#EB1000" stop-opacity="0"/></linearGradient><linearGradient id="paint3_linear_5481_99491" x1="19.755" x2="138.452" y1="99.617" y2="33.125" gradientUnits="userSpaceOnUse"><stop stop-color="#FC7D00" stop-opacity="0"/><stop offset=".432" stop-color="#FC7D00"/><stop offset=".609" stop-color="#FC7D00"/><stop offset="1" stop-color="#FC7D00" stop-opacity="0"/></linearGradient><radialGradient id="paint4_radial_5481_99491" cx="0" cy="0" r="1" gradientTransform="translate(90.4056 17.3436) rotate(90) scale(41.7653)" gradientUnits="userSpaceOnUse"><stop offset=".167" stop-color="#EB1000"/><stop offset="1" stop-color="#EB1000" stop-opacity="0"/></radialGradient><clipPath id="clip0_5481_99491"><rect width="96" height="96" fill="#fff" rx="5.125"/></clipPath></defs><clipPath id="mask0_5481_99491"><path fill="#292929" fill-rule="evenodd" d="M28.8435 32.0522H20.4648C18.2557 32.0522 16.4648 33.8431 16.4648 36.0522V60.0744C16.4648 62.2836 18.2557 64.0744 20.4648 64.0744H28.8553C28.9128 64.0744 28.9701 64.0757 29.0273 64.0781L29.0273 32.048C28.9662 32.0508 28.905 32.0522 28.8435 32.0522ZM33.0273 29.5369L33.0273 66.5646L43.3321 76.6791C45.2299 78.5419 48.4336 77.1974 48.4336 74.5381L48.4336 21.4611C48.4336 18.7946 45.215 17.4533 43.3214 19.3307L33.0273 29.5369ZM55.4101 34.772C56.0743 33.8894 57.3282 33.7124 58.2108 34.3765C62.3205 37.4692 64.9843 42.3945 64.9843 47.9413C64.9843 53.5335 62.2768 58.4938 58.1096 61.5815C57.2222 62.2391 55.9696 62.0528 55.312 61.1653C54.6544 60.2778 54.8408 59.0253 55.7282 58.3677C58.9211 56.0019 60.9843 52.2127 60.9843 47.9413C60.9843 43.7044 58.9544 39.9422 55.8056 37.5727C54.923 36.9085 54.7459 35.6546 55.4101 34.772ZM68.2152 25.2476C67.3326 24.5835 66.0787 24.7605 65.4145 25.6431C64.7504 26.5257 64.9274 27.7796 65.81 28.4438C71.7197 32.891 75.535 39.9576 75.535 47.9159C75.535 55.9393 71.6571 63.0564 65.6648 67.4966C64.7773 68.1542 64.5909 69.4067 65.2485 70.2942C65.9061 71.1817 67.1587 71.3681 68.0462 70.7104C75.0128 65.5483 79.535 57.26 79.535 47.9159C79.535 38.6477 75.0858 30.418 68.2152 25.2476Z"/></clipPath><g clip-path="url(#mask0_5481_99491)"><g clip-path="url(#clip0_5481_99491)"><rect width="96" height="96" fill="#FFECCF" rx="5.125"/><rect width="96" height="96" fill="#FFECCF"/><circle cx="54.281" cy="3.723" r="41.765" fill="url(#paint0_radial_5481_99491)" transform="rotate(-0.0800682 54.2806 3.72345)"/><path fill="url(#paint1_linear_5481_99491)" d="M36.6427 -16.9581C29.27 -21.5204 19.9288 -21.5483 12.5287 -17.0303L-61.4858 28.1606C-68.7346 32.5865 -68.7467 43.0335 -61.5078 47.4761L12.0177 92.6029C19.4067 97.1373 28.7479 97.1319 36.1306 92.5868L109.505 47.4178C116.705 42.9845 116.718 32.596 109.526 28.1461L36.6427 -16.9581Z"/><path fill="url(#paint2_linear_5481_99491)" d="M13.8365 45.5788C15.4774 9.73912 45.8613 -17.9845 81.7009 -16.3437C117.541 -14.7029 145.264 15.6811 143.623 51.5207C141.982 87.3603 111.599 115.084 75.759 113.443C39.9193 111.802 12.1957 81.4184 13.8365 45.5788Z"/><path fill="url(#paint3_linear_5481_99491)" d="M-38.8952 69.2093C-24.6489 63.1318 -9.28437 63.3923 4.02702 68.7083C30.6634 79.3721 46.1622 72.779 56.9121 46.2036C62.2666 32.8681 72.7207 21.5742 86.983 15.4898C115.498 3.34376 148.418 16.5231 160.547 44.9542C172.676 73.3853 159.4 106.253 130.892 118.415C116.598 124.513 101.204 124.228 87.8718 118.864C61.2786 108.257 45.8093 114.875 35.073 141.482C29.7049 154.786 19.2532 166.041 5.00686 172.119C-23.4858 184.274 -56.4056 171.095 -68.5277 142.679C-80.6499 114.264 -67.3878 81.3645 -38.8952 69.2093Z"/><circle cx="90.406" cy="17.344" r="41.765" fill="url(#paint4_radial_5481_99491)" transform="rotate(-0.0800682 90.4056 17.3436)"/></g></g></svg>