<svg xmlns="http://www.w3.org/2000/svg" width="96" height="96" viewBox="0 0 96 96"><defs><radialGradient id="paint0_radial_5481_99341" cx="0" cy="0" r="1" gradientTransform="translate(53.4364 9.68696) rotate(90) scale(36.1398)" gradientUnits="userSpaceOnUse"><stop offset=".167" stop-color="#FF709F"/><stop offset="1" stop-color="#FF709F" stop-opacity="0"/></radialGradient><linearGradient id="paint1_linear_5481_99341" x1="-14.409" x2="120.646" y1="80.7" y2="-1.467" gradientUnits="userSpaceOnUse"><stop offset=".06" stop-color="#8480FE"/><stop offset=".6" stop-color="#8480FE" stop-opacity="0"/></linearGradient><linearGradient id="paint2_linear_5481_99341" x1="93.971" x2="36.033" y1="21.766" y2="84.066" gradientUnits="userSpaceOnUse"><stop stop-color="#EB1000"/><stop offset="1" stop-color="#EB1000" stop-opacity="0"/></linearGradient><linearGradient id="paint3_linear_5481_99341" x1="23.561" x2="126.271" y1="92.664" y2="35.128" gradientUnits="userSpaceOnUse"><stop stop-color="#FC7D00" stop-opacity="0"/><stop offset=".432" stop-color="#FC7D00"/><stop offset=".609" stop-color="#FC7D00"/><stop offset="1" stop-color="#FC7D00" stop-opacity="0"/></linearGradient><radialGradient id="paint4_radial_5481_99341" cx="0" cy="0" r="1" gradientTransform="translate(84.6942 21.4721) rotate(90) scale(36.1398)" gradientUnits="userSpaceOnUse"><stop offset=".167" stop-color="#EB1000"/><stop offset="1" stop-color="#EB1000" stop-opacity="0"/></radialGradient><clipPath id="clip0_5481_99341"><rect width="83.07" height="83.07" x="6.465" y="6.465" fill="#fff" rx="2.077"/></clipPath></defs><clipPath id="mask0_5481_99341"><path fill="#fff" d="M73.7724 61.7318C70.5968 56.74 67.3237 49.772 67.0801 42.0116V35.9585H67.0782C67.0783 35.9323 67.0801 35.9067 67.0801 35.8805C67.0801 25.3426 58.5374 16.7998 47.9994 16.7998C37.4614 16.7998 28.9187 25.3426 28.9187 35.8805C28.9187 35.9067 28.9206 35.9324 28.9207 35.9585H28.9187V42.0116C28.6752 49.772 25.402 56.74 22.2264 61.7318C20.0571 65.1417 22.4844 69.5998 26.5259 69.5998H40.7994V71.9998C40.7994 75.9763 44.023 79.1998 47.9994 79.1998C51.9759 79.1998 55.1994 75.9763 55.1994 71.9998V69.5998H69.473C73.5144 69.5998 75.9417 65.1417 73.7724 61.7318Z"/></clipPath><g clip-path="url(#mask0_5481_99341)"><g clip-path="url(#clip0_5481_99341)"><rect width="83.07" height="83.07" x="6.465" y="6.465" fill="#FFECCF" rx="2.077"/><rect width="83.07" height="83.07" fill="#FFECCF" transform="translate(6.46484 6.46484)"/><circle cx="53.436" cy="9.687" r="36.14" fill="url(#paint0_radial_5481_99341)" transform="rotate(-0.0800682 53.4364 9.68696)"/><path fill="url(#paint1_linear_5481_99341)" d="M38.1729 -8.20876C31.7932 -12.1565 23.7102 -12.1807 17.3068 -8.27118L-46.7386 30.8329C-53.011 34.6627 -53.0215 43.7025 -46.7576 47.5468L16.8646 86.5954C23.2584 90.519 31.3415 90.5144 37.7297 86.5814L101.221 47.4963C107.452 43.6602 107.463 34.6709 101.24 30.8203L38.1729 -8.20876Z"/><path fill="url(#paint2_linear_5481_99341)" d="M18.437 45.9048C19.8569 14.8925 46.1483 -9.09703 77.1607 -7.67722C108.173 -6.2574 132.162 20.0341 130.743 51.0464C129.323 82.0588 103.031 106.048 72.0191 104.628C41.0067 103.209 17.0172 76.9172 18.437 45.9048Z"/><path fill="url(#paint3_linear_5481_99341)" d="M-27.1893 66.3524C-14.8618 61.0934 -1.56677 61.3189 9.95169 65.9189C33.0004 75.1463 46.4117 69.4413 55.7136 46.4453C60.3469 34.906 69.393 25.1334 81.7342 19.8685C106.409 9.35835 134.895 20.7625 145.39 45.3642C155.885 69.9659 144.398 98.4068 119.729 108.931C107.36 114.207 94.0394 113.96 82.5033 109.319C59.492 100.141 46.1062 105.867 36.8161 128.891C32.171 140.403 23.127 150.142 10.7995 155.401C-13.8554 165.919 -42.3412 154.515 -52.8306 129.927C-63.32 105.339 -51.8442 76.8704 -27.1893 66.3524Z"/><circle cx="84.694" cy="21.472" r="36.14" fill="url(#paint4_radial_5481_99341)" transform="rotate(-0.0800682 84.6942 21.4721)"/></g></g></svg>