<svg xmlns="http://www.w3.org/2000/svg" width="48" height="48" viewBox="0 0 48 48"><defs><radialGradient id="paint0_radial_5481_99545" cx="0" cy="0" r="1" gradientTransform="translate(27.1423 1.86222) rotate(90) scale(20.8826)" gradientUnits="userSpaceOnUse"><stop offset=".167" stop-color="#FF709F"/><stop offset="1" stop-color="#FF709F" stop-opacity="0"/></radialGradient><linearGradient id="paint1_linear_5481_99545" x1="-12.062" x2="65.977" y1="42.895" y2="-4.583" gradientUnits="userSpaceOnUse"><stop offset=".06" stop-color="#8480FE"/><stop offset=".6" stop-color="#8480FE" stop-opacity="0"/></linearGradient><linearGradient id="paint2_linear_5481_99545" x1="50.562" x2="17.084" y1="8.842" y2="44.84" gradientUnits="userSpaceOnUse"><stop stop-color="#EB1000"/><stop offset="1" stop-color="#EB1000" stop-opacity="0"/></linearGradient><linearGradient id="paint3_linear_5481_99545" x1="9.878" x2="69.226" y1="49.809" y2="16.563" gradientUnits="userSpaceOnUse"><stop stop-color="#FC7D00" stop-opacity="0"/><stop offset=".432" stop-color="#FC7D00"/><stop offset=".609" stop-color="#FC7D00"/><stop offset="1" stop-color="#FC7D00" stop-opacity="0"/></linearGradient><radialGradient id="paint4_radial_5481_99545" cx="0" cy="0" r="1" gradientTransform="translate(45.2009 8.67178) rotate(90) scale(20.8826)" gradientUnits="userSpaceOnUse"><stop offset=".167" stop-color="#EB1000"/><stop offset="1" stop-color="#EB1000" stop-opacity="0"/></radialGradient><clipPath id="clip0_5481_99545"><rect width="48" height="48" fill="#fff" rx="5.125"/></clipPath></defs><clipPath id="mask0_5481_99545"><path fill="#fff" fill-rule="evenodd" d="M14.3115 11.5469C14.3115 12.9276 15.4308 14.0469 16.8115 14.0469L19.4373 18.5948C18.2041 19.6371 17.3325 21.0938 17.0373 22.75H11.7866C11.3544 22.0027 10.5464 21.5 9.62109 21.5C8.24038 21.5 7.12109 22.6193 7.12109 24C7.12109 25.3807 8.24038 26.5 9.62109 26.5C10.5464 26.5 11.3544 25.9973 11.7866 25.25H17.0374C17.3327 26.9061 18.2044 28.3626 19.4375 29.4048L16.8115 33.9531C15.4308 33.9531 14.3115 35.0724 14.3115 36.4531C14.3115 37.8338 15.4308 38.9531 16.8115 38.9531C18.1922 38.9531 19.3115 37.8338 19.3115 36.4531C19.3115 35.9976 19.1897 35.5705 18.9768 35.2027L21.6017 30.6563C22.3509 30.9264 23.1589 31.0737 24.0012 31.0737C24.8437 31.0737 25.6518 30.9264 26.4011 30.6562L29.0263 35.2031C28.8136 35.5708 28.6919 35.9978 28.6919 36.4531C28.6919 37.8338 29.8112 38.9531 31.1919 38.9531C32.5726 38.9531 33.6919 37.8338 33.6919 36.4531C33.6919 35.0724 32.5726 33.9531 31.1919 33.9531C31.1917 33.9531 31.1916 33.9531 31.1914 33.9531L28.5653 29.4045C29.7982 28.3623 30.6697 26.9059 30.965 25.25H36.2163C36.6486 25.9973 37.4565 26.5 38.3818 26.5C39.7625 26.5 40.8818 25.3807 40.8818 24C40.8818 22.6193 39.7625 21.5 38.3818 21.5C37.4565 21.5 36.6486 22.0027 36.2163 22.75L30.9651 22.75C30.6699 21.094 29.7984 19.6374 28.5655 18.5951L31.1914 14.0469H31.1919C32.5726 14.0469 33.6919 12.9276 33.6919 11.5469C33.6919 10.1662 32.5726 9.04688 31.1919 9.04688C29.8112 9.04688 28.6919 10.1662 28.6919 11.5469C28.6919 12.0022 28.8136 12.4292 29.0263 12.7969L26.4014 17.3434C25.652 17.0731 24.8438 16.9258 24.0012 16.9258C23.1588 16.9258 22.3507 17.073 21.6014 17.3432L18.9768 12.7973C19.1897 12.4295 19.3115 12.0024 19.3115 11.5469C19.3115 10.1662 18.1922 9.04688 16.8115 9.04688C15.4308 9.04688 14.3115 10.1662 14.3115 11.5469Z"/></clipPath><g clip-path="url(#mask0_5481_99545)"><g clip-path="url(#clip0_5481_99545)"><rect width="48" height="48" fill="#FFECCF" rx="5.125"/><rect width="48" height="48" fill="#FFECCF"/><circle cx="27.142" cy="1.862" r="20.883" fill="url(#paint0_radial_5481_99545)" transform="rotate(-0.0800682 27.1423 1.86221)"/><path fill="url(#paint1_linear_5481_99545)" d="M18.3213 -8.47858C14.635 -10.7597 9.96439 -10.7737 6.26433 -8.51465L-30.7429 14.0808C-34.3673 16.2938 -34.3733 21.5172 -30.7539 23.7386L6.00883 46.302C9.70335 48.5691 14.374 48.5664 18.0653 46.2939L54.7523 23.7094C58.3526 21.4928 58.3591 16.2985 54.7632 14.0735L18.3213 -8.47858Z"/><path fill="url(#paint2_linear_5481_99545)" d="M6.91632 22.7894C7.73673 4.86956 22.9287 -8.99224 40.8485 -8.17184C58.7683 -7.35143 72.6301 7.84053 71.8097 25.7603C70.9893 43.6802 55.7973 57.542 37.8775 56.7215C19.9577 55.9011 6.09591 40.7092 6.91632 22.7894Z"/><path fill="url(#paint3_linear_5481_99545)" d="M-19.4476 34.6052C-12.3244 31.5664 -4.64218 31.6967 2.01351 34.3546C15.3317 39.6865 23.0811 36.39 28.456 23.1023C31.1333 16.4345 36.3604 10.7876 43.4915 7.74541C57.7492 1.67237 74.2091 8.26203 80.2736 22.4776C86.338 36.6931 79.7002 53.1271 65.4459 59.2081C58.2988 62.2571 50.6018 62.1143 43.9359 59.4324C30.6393 54.129 22.9046 57.438 17.5365 70.7417C14.8525 77.3935 9.62658 83.0211 2.50343 86.0599C-11.7429 92.1375 -28.2028 85.5478 -34.2639 71.3402C-40.3249 57.1326 -33.6939 40.6828 -19.4476 34.6052Z"/><circle cx="45.201" cy="8.672" r="20.883" fill="url(#paint4_radial_5481_99545)" transform="rotate(-0.0800682 45.2009 8.67178)"/></g></g></svg>